<svg width="32" height="32" viewBox="0 0 32 32" fill="none" xmlns="http://www.w3.org/2000/svg">
<rect width="32" height="32" fill="white"/>
<circle cx="16" cy="16" r="16" fill="#EC8225"/>
<g clip-path="url(#clip0_249_8422)">
<path d="M16 16C16.9889 16 17.9556 15.7068 18.7779 15.1573C19.6001 14.6079 20.241 13.827 20.6194 12.9134C20.9978 11.9998 21.0969 10.9945 20.9039 10.0246C20.711 9.05465 20.2348 8.16373 19.5355 7.46447C18.8363 6.76521 17.9454 6.289 16.9755 6.09608C16.0055 5.90315 15.0002 6.00217 14.0866 6.3806C13.173 6.75904 12.3921 7.39991 11.8427 8.22215C11.2932 9.0444 11 10.0111 11 11C11 12.3261 11.5268 13.5979 12.4645 14.5355C13.4021 15.4732 14.6739 16 16 16ZM16 8.5C16.4945 8.5 16.9778 8.64662 17.3889 8.92133C17.8 9.19603 18.1205 9.58648 18.3097 10.0433C18.4989 10.5001 18.5484 11.0028 18.452 11.4877C18.3555 11.9727 18.1174 12.4181 17.7678 12.7678C17.4181 13.1174 16.9727 13.3555 16.4877 13.452C16.0028 13.5484 15.5001 13.4989 15.0433 13.3097C14.5865 13.1205 14.196 12.8001 13.9213 12.3889C13.6466 11.9778 13.5 11.4945 13.5 11C13.5 10.337 13.7634 9.70108 14.2322 9.23224C14.7011 8.76339 15.337 8.5 16 8.5Z" fill="white"/>
<path d="M21.6623 18.9335C21.9691 18.732 22.2211 18.4575 22.3956 18.1346C22.5701 17.8117 22.6618 17.4505 22.6623 17.0835C22.6692 16.8627 22.6308 16.6429 22.5495 16.4376C22.4682 16.2322 22.3457 16.0457 22.1895 15.8895C22.0334 15.7334 21.8469 15.6108 21.6415 15.5295C21.4362 15.4482 21.2163 15.4099 20.9956 15.4168C20.6312 15.4174 20.277 15.5374 19.9873 15.7585C18.8263 16.6261 17.4158 17.095 15.9664 17.095C14.5171 17.095 13.1066 16.6261 11.9456 15.7585C11.6669 15.564 11.3354 15.4593 10.9956 15.4585C10.7748 15.4515 10.555 15.4899 10.3497 15.5712C10.1443 15.6525 9.95781 15.775 9.80164 15.9312C9.64547 16.0874 9.52295 16.2739 9.44165 16.4792C9.36035 16.6846 9.32198 16.9044 9.32892 17.1251C9.32941 17.4922 9.42103 17.8534 9.59557 18.1763C9.77011 18.4992 10.0221 18.7737 10.3289 18.9751C11.1383 19.4925 12.0163 19.8937 12.9373 20.1668L13.4706 20.3168L10.7373 23.0001C10.572 23.1637 10.4408 23.3583 10.3512 23.5729C10.2617 23.7875 10.2155 24.0176 10.2155 24.2501C10.2155 24.4826 10.2617 24.7128 10.3512 24.9274C10.4408 25.142 10.572 25.3366 10.7373 25.5001C11.0718 25.8259 11.5203 26.0082 11.9873 26.0082C12.4542 26.0082 12.9027 25.8259 13.2373 25.5001L15.9956 22.6085L18.7706 25.4835C19.1021 25.815 19.5517 26.0012 20.0206 26.0012C20.4894 26.0012 20.9391 25.815 21.2706 25.4835C21.6021 25.152 21.7884 24.7023 21.7884 24.2335C21.7884 23.7646 21.6021 23.315 21.2706 22.9835L18.4956 20.3251L19.0373 20.1751C19.9668 19.888 20.8507 19.4699 21.6623 18.9335Z" fill="white"/>
</g>
<defs>
<clipPath id="clip0_249_8422">
<rect width="20" height="20" fill="white" transform="translate(6 6)"/>
</clipPath>
</defs>
</svg>
