<svg width="64" height="64" viewBox="0 0 64 64" fill="none" xmlns="http://www.w3.org/2000/svg">
<path d="M32 45V51.5M20 42L15 50M46.5 42L51.5 50M6.5 31L12.0845 25.525C23.207 14.6206 40.957 14.45 52.287 25.1387L58.5 31L52.4986 36.7749C41.1143 47.7296 23.056 47.556 11.8845 36.3845L6.5 31Z" stroke="#FF9900"/>
<path d="M15.5 22.5L13.5 20.5" stroke="#FF9900" stroke-linecap="round"/>
<path d="M49 22.5L51.5 20" stroke="#FF9900" stroke-linecap="round"/>
<path d="M46 31C46 27.761 44.8769 24.6223 42.8222 22.1185C40.7674 19.6147 37.908 17.9009 34.7313 17.269C33.6607 17.0561 33.5765 16.9704 32.5 17.0089M41.8995 40.8995C39.6092 43.1898 36.5956 44.6151 33.3722 44.9326C30.1489 45.2501 26.9151 44.44 24.222 42.6406C21.5289 40.8411 19.5431 38.1635 18.6028 35.064C17.6626 31.9645 17.8262 28.6349 19.0657 25.6424C20.3052 22.65 22.5439 20.1799 25.4004 18.6531C27.2943 17.6408 30.3821 17.0846 32.5 17.0089M32.5 17.0089V8M24.222 18.6531L20 12.5M41.8995 18.6531L45.5 12.5" stroke="#FF9900" stroke-linecap="round"/>
<circle cx="32" cy="31" r="6.5" stroke="#FF9900"/>
<circle cx="1" cy="1" r="1" transform="matrix(-1 0 0 1 46 35)" fill="#FF9900"/>
</svg>
