<svg width="64" height="64" viewBox="0 0 64 64" fill="none" xmlns="http://www.w3.org/2000/svg">
<g clip-path="url(#clip0_81_487)">
<path d="M43.3828 21.7605L43.5278 22.239L44.0063 22.094L47.6275 20.9971L50.5051 30.4967L50.65 30.9752L51.1286 30.8303L52.7073 30.352L53.1859 30.2071L53.0409 29.7285L50.1633 20.229L53.7845 19.132L54.263 18.9871L54.1181 18.5085L53.7543 17.3077L53.6093 16.8291L53.1308 16.9741L43.3526 19.9361L42.8741 20.0811L43.019 20.5596L43.3828 21.7605Z" stroke="#FF9900"/>
<path d="M42.7739 24.9704L43.3614 24.7924L43.0682 24.253C42.7452 23.6589 42.3311 23.1593 41.8242 22.7618C41.3241 22.3668 40.7627 22.0747 40.1437 21.8855C39.5267 21.6936 38.8766 21.6058 38.1963 21.6191C37.5194 21.6312 36.8314 21.7448 36.1339 21.9561C34.9533 22.3137 33.9598 22.8852 33.1695 23.6792C32.3788 24.4736 31.8528 25.4251 31.5954 26.5238C31.3355 27.6334 31.4071 28.8179 31.7849 30.0651C32.1627 31.3123 32.7605 32.3374 33.5925 33.1163C34.4162 33.8875 35.3818 34.3872 36.4805 34.6093C37.5785 34.8312 38.7221 34.7554 39.9027 34.3978C40.6001 34.1865 41.2353 33.8993 41.8051 33.5337C42.3781 33.1676 42.8706 32.736 43.2785 32.2378L43.2802 32.2358C43.6887 31.7314 43.9929 31.1751 44.1897 30.5689C44.3891 29.9545 44.4567 29.3098 44.3968 28.6395L44.3422 28.0272L43.7539 28.2054L42.1751 28.6837L41.7986 28.7977L41.8208 29.1905C41.8405 29.5368 41.7905 29.8568 41.6745 30.1562L41.674 30.1576C41.5565 30.4634 41.3842 30.7461 41.1533 31.007C40.9227 31.2661 40.6451 31.4956 40.3167 31.6943C39.9861 31.8943 39.6242 32.0547 39.2292 32.1743C38.5117 32.3917 37.8284 32.4298 37.1716 32.2994C36.5299 32.1699 35.9545 31.8671 35.4394 31.3772C34.9408 30.8976 34.5445 30.2194 34.2698 29.3124C33.995 28.4054 33.9484 27.6213 34.097 26.9456C34.2536 26.2523 34.5643 25.6811 35.0262 25.2173C35.5003 24.7444 36.0899 24.3968 36.8074 24.1795C37.2024 24.0598 37.5925 23.9924 37.9785 23.9753C38.3605 23.9585 38.7181 23.9968 39.0537 24.0873L39.0537 24.0874L39.0604 24.0891C39.3949 24.1744 39.6936 24.3118 39.9603 24.5006L39.9603 24.5006L39.964 24.5031C40.2231 24.683 40.4416 24.9201 40.6186 25.2226L40.8178 25.5629L41.1951 25.4486L42.7739 24.9704Z" stroke="#FF9900"/>
<path d="M25.421 28.1266L25.4224 28.1269C26.0682 28.2552 26.6428 28.5579 27.1528 29.0481L27.1546 29.0497C27.6569 29.5279 28.0551 30.205 28.3298 31.1118C28.6044 32.0185 28.649 32.8028 28.4964 33.4793L28.4959 33.4816C28.3436 34.1724 28.0335 34.7431 27.5675 35.2083L27.5665 35.2093C27.0971 35.6804 26.51 36.0272 25.7922 36.2447C25.0747 36.462 24.3914 36.5001 23.7346 36.3697C23.0929 36.2403 22.5175 35.9375 22.0024 35.4475C21.5038 34.968 21.1075 34.2897 20.8327 33.3828C20.558 32.4758 20.5113 31.6916 20.66 31.016C20.8166 30.3226 21.1273 29.7514 21.5892 29.2877C22.0632 28.8147 22.6528 28.4672 23.3704 28.2498C24.0882 28.0324 24.7691 27.9952 25.421 28.1266ZM31.0041 33.9004C31.264 32.7908 31.1925 31.6062 30.8147 30.359C30.4369 29.1118 29.8391 28.0867 29.0071 27.3078C28.1833 26.5367 27.2177 26.037 26.1191 25.8149C25.021 25.5929 23.8774 25.6688 22.6968 26.0264C21.5163 26.384 20.5228 26.9555 19.7325 27.7495C18.9418 28.5439 18.4158 29.4955 18.1584 30.5941C17.8985 31.7037 17.97 32.8883 18.3478 34.1355C18.7257 35.3827 19.3235 36.4078 20.1554 37.1867C20.9792 37.9578 21.9448 38.4575 23.0434 38.6796C24.1415 38.9016 25.2851 38.8257 26.4657 38.4681C27.6462 38.1105 28.6397 37.539 29.43 36.745C30.2208 35.9506 30.7467 34.9991 31.0041 33.9004Z" stroke="#FF9900"/>
<path d="M15.6843 28.8399L15.5394 28.3614L15.0609 28.5063L7.19245 30.8898L6.71392 31.0348L6.85888 31.5133L10.2452 42.6923L10.3902 43.1708L10.8687 43.0258L12.4475 42.5476L12.926 42.4026L12.781 41.9241L9.90342 32.4245L15.7145 30.6642L16.1931 30.5193L16.0481 30.0408L15.6843 28.8399Z" stroke="#FF9900"/>
<path d="M35.479 41.4846L63.2336 33.0772L56.2757 10.108L0.766602 26.9228L7.72445 49.8921L35.479 41.4846ZM35.479 41.4846L42 61" stroke="#FF9900"/>
</g>
<defs>
<clipPath id="clip0_81_487">
<rect width="64" height="64" fill="white"/>
</clipPath>
</defs>
</svg>
