<svg width="64" height="64" viewBox="0 0 64 64" fill="none" xmlns="http://www.w3.org/2000/svg">
<path fill-rule="evenodd" clip-rule="evenodd" d="M2.47566 26.0447L2 26.1988L2.1541 26.6744L10.2059 51.528L10.36 52.0037L10.8357 51.8496L34.8016 44.0853L35.1952 43.9578L35.1436 43.5473L34.6104 39.3065L33.8995 33.652L33.8735 33.4457L33.7089 33.3186L25.4535 26.9453L27.0858 18.8549L27.2549 18.0169L26.4416 18.2804L2.47566 26.0447ZM11.0031 50.7441L3.25952 26.8419L25.9365 19.4952L25.2107 23.0927L7.32022 28.8887L6.84455 29.0428L6.99865 29.5185L12.4624 46.3834L12.6165 46.8591L13.0922 46.705L33.6936 40.0307L34.0998 43.2615L11.0031 50.7441ZM8.10408 29.6859L24.9837 24.2174L24.4172 27.0255C21.7627 28.2331 19.5455 29.6559 18.0304 31.0997C17.2006 31.8905 16.5634 32.7047 16.1888 33.5115C15.8125 34.3219 15.6895 35.1533 15.9437 35.938C16.2555 36.9003 17.1681 37.5152 18.2909 37.8909C19.4303 38.2722 20.9045 38.4499 22.5547 38.4567C25.7024 38.4697 29.5963 37.8606 33.2783 36.7279L33.5666 39.0207L13.2596 45.5996L8.10408 29.6859ZM33.1516 35.7202L32.9332 33.9831L25.0008 27.8591C22.3402 29.0515 20.1639 30.4479 18.7203 31.8236C17.9459 32.5617 17.4004 33.2766 17.0958 33.9327C16.7927 34.5853 16.7398 35.1506 16.8951 35.6298C17.0598 36.1382 17.593 36.6029 18.6082 36.9426C19.607 37.2768 20.9632 37.4501 22.5588 37.4567C25.6393 37.4694 29.5035 36.8607 33.1516 35.7202Z" fill="#FF9900"/>
<path fill-rule="evenodd" clip-rule="evenodd" d="M52.1619 14.3926L52.0113 13.9159L51.5345 14.0665L30.6264 20.6721L31.2609 17.6414L33.8172 16.8338L53.7716 10.5295L61.0395 33.5341L39.1235 40.4581L38.8006 37.7299L57.1764 31.9244L57.6532 31.7737L57.5026 31.297L52.1619 14.3926ZM33.516 15.8803L30.402 16.8641L28.647 25.2466L37.1004 31.8717L38.1528 40.7648L38.2724 41.7757L39.2431 41.469L61.3408 34.4876L62.2943 34.1864L61.9931 33.2328L54.7252 10.2283L54.4239 9.27473L53.4704 9.57599L33.516 15.8803ZM30.3379 25.3012L37.7173 31.0846L38.0446 31.3411L38.0935 31.7541L38.2755 33.2918C41.1493 32.1126 43.528 30.6836 45.124 29.2567C45.9843 28.4875 46.5979 27.736 46.947 27.0436C47.2947 26.3539 47.3648 25.7572 47.2059 25.2542C47.0297 24.6965 46.5551 24.2042 45.7317 23.8215C44.9079 23.4386 43.7836 23.1905 42.4194 23.104C39.6944 22.9312 36.121 23.4096 32.3564 24.599C31.6638 24.8178 30.9899 25.0527 30.3379 25.3012ZM38.3973 34.3216L38.681 36.719L56.3984 31.1214L51.359 15.1707L30.3913 21.7951L29.8417 24.4205C30.5555 24.1451 31.2947 23.8857 32.0552 23.6454C35.9068 22.4286 39.606 21.9236 42.4826 22.106C43.9192 22.1971 45.1778 22.4612 46.1532 22.9147C47.1291 23.3683 47.8699 24.0366 48.1594 24.9529C48.4199 25.7775 48.2656 26.6495 47.8399 27.4938C47.4156 28.3353 46.7068 29.1829 45.7905 30.0022C44.0389 31.5683 41.4588 33.0931 38.3973 34.3216Z" fill="#FF9900"/>
</svg>
