<svg width="64" height="64" viewBox="0 0 64 64" fill="none" xmlns="http://www.w3.org/2000/svg">
<path d="M52.2759 63H6V23.5603L32.819 2L58.0603 23.5603V56.1638H52.2759V27.2414L32.819 10.4138L12.3103 27.2414V56.1638H24.4052M24.4052 48.2759L40.7069 26.1897M42.8103 45.1207C42.8103 43.3781 41.3977 41.9655 39.6552 41.9655C37.9126 41.9655 36.5 43.3781 36.5 45.1207C36.5 46.8632 37.9126 48.2759 39.6552 48.2759C41.3977 48.2759 42.8103 46.8632 42.8103 45.1207ZM28.0862 30.3966V30.3966C28.0862 32.1391 26.6736 33.5517 24.931 33.5517V33.5517C23.1885 33.5517 21.7759 32.1391 21.7759 30.3966V30.3966C21.7759 28.654 23.1885 27.2414 24.931 27.2414V27.2414C26.6736 27.2414 28.0862 28.654 28.0862 30.3966Z" stroke="#FF9900"/>
</svg>
