<svg width="120" height="120" viewBox="0 0 120 120" fill="none" xmlns="http://www.w3.org/2000/svg">
<path fill-rule="evenodd" clip-rule="evenodd" d="M60.2958 11L60.6361 11.3148L112.423 59.2235L111.744 59.9576L60.2973 12.3637L9.07799 59.9568L8.39729 59.2243L59.9562 11.3156L60.2958 11ZM59.7965 63.9251V17.6134H60.7965V63.9251H59.7965ZM36.7984 60.0905H21.5133V59.0905H36.7984V60.0905ZM99.0798 60.0905H84.0227V59.0905H99.0798V60.0905ZM71.9315 70.5848H49.1178V69.5848H71.9315V70.5848ZM36.7984 91.5734H21.5133V90.5734H36.7984V91.5734ZM99.0798 91.5734H84.0227V90.5734H99.0798V91.5734ZM42.0019 34.7236V104.99H43.0019V34.7236H42.0019ZM78.5912 104.99V34.7236H77.5912V104.99H78.5912ZM105.739 104.99V60.2749H104.739V104.99H105.739ZM6 109.824H114.593V108.824H6V109.824ZM15.0816 60.2749V104.99H16.0816V60.2749H15.0816Z" fill="#FF9900"/>
</svg>
