<svg width="120" height="120" viewBox="0 0 120 120" fill="none" xmlns="http://www.w3.org/2000/svg">
<path d="M3 35.806L14.5 18L56.5385 80M44.0931 58.1381H59.8259M49.9636 40.2724L61 56.0224" stroke="#FF9900" stroke-linecap="round" stroke-linejoin="round"/>
<path d="M70 38H84" stroke="#FF9900" stroke-linecap="round" stroke-linejoin="round"/>
<path d="M50 38H66" stroke="#FF9900" stroke-linecap="round" stroke-linejoin="round"/>
<path d="M64.2 57.9032H80.52M85.32 57.9032H99M69.48 40L81 55.7548M83.88 59.8129L96.6 77M63 59.8129L75.48 77" stroke="#FF9900" stroke-linecap="round" stroke-linejoin="round"/>
<path d="M59.8521 78.8357H116M110.102 80.9415V102M49 73.922V102M114.82 76.4958L72.8275 18" stroke="#FF9900" stroke-linecap="round" stroke-linejoin="round"/>
<path d="M15 18H71M34.682 20.093L46.6318 36.3721M55.5356 20.093L67.0167 36.3721M29.2929 38H44.9916" stroke="#FF9900" stroke-linecap="round" stroke-linejoin="round"/>
</svg>
