<svg width="20" height="17" viewBox="0 0 20 17" fill="none" xmlns="http://www.w3.org/2000/svg">
<path fill-rule="evenodd" clip-rule="evenodd" d="M6.5 7.5C4.91449 7.5 3.57521 6.44574 3.14494 5H1C0.447715 5 0 4.55228 0 4C0 3.44772 0.447715 3 1 3H3.14494C3.57521 1.55426 4.91449 0.5 6.5 0.5C8.08917 0.5 9.43096 1.55912 9.85802 3.01001C9.9044 3.00341 9.9518 3 10 3H19C19.5523 3 20 3.44772 20 4C20 4.55228 19.5523 5 19 5H10C9.9518 5 9.9044 4.99659 9.85802 4.98999C9.43096 6.44088 8.08917 7.5 6.5 7.5ZM5 4C5 3.17157 5.67157 2.5 6.5 2.5C7.32843 2.5 8 3.17157 8 4C8 4.82843 7.32843 5.5 6.5 5.5C5.67157 5.5 5 4.82843 5 4Z" fill="black"/>
<path fill-rule="evenodd" clip-rule="evenodd" d="M9.14494 14C9.57521 15.4457 10.9145 16.5 12.5 16.5C14.0892 16.5 15.431 15.4409 15.858 13.99C15.9044 13.9966 15.9518 14 16 14H19C19.5523 14 20 13.5523 20 13C20 12.4477 19.5523 12 19 12H16C15.9518 12 15.9044 12.0034 15.858 12.01C15.431 10.5591 14.0892 9.5 12.5 9.5C10.9145 9.5 9.57521 10.5543 9.14494 12H1C0.447715 12 0 12.4477 0 13C0 13.5523 0.447715 14 1 14H9.14494ZM11 13C11 12.1716 11.6716 11.5 12.5 11.5C13.3284 11.5 14 12.1716 14 13C14 13.8284 13.3284 14.5 12.5 14.5C11.6716 14.5 11 13.8284 11 13Z" fill="black"/>
</svg>
