<svg width="40" height="41" viewBox="0 0 40 41" fill="none" xmlns="http://www.w3.org/2000/svg">
<circle cx="20" cy="20.5" r="20" fill="#6095D2"/>
<g clip-path="url(#clip0_131_2197)">
<path d="M27.8321 22.0409C28.0821 21.5721 28.9675 20.2284 29.6342 19.2284C31.6342 16.27 31.9988 15.645 31.9988 15.27C31.9988 15.1319 31.9439 14.9994 31.8462 14.9017C31.7485 14.8041 31.6161 14.7492 31.4779 14.7492H26.7904C26.6689 14.7496 26.5513 14.7926 26.4581 14.8706C26.3649 14.9486 26.3019 15.0567 26.28 15.1763C26.0196 16.6138 22.6446 20.7388 22.1133 20.9992C21.8946 20.9992 21.5925 20.4575 21.5925 19.4367V15.0409C21.6211 14.8709 21.6136 14.6968 21.5705 14.5299C21.5275 14.363 21.4498 14.207 21.3425 14.0721C20.9883 13.7075 20.4571 13.7075 18.9779 13.7075C16.2904 13.7075 15.3321 14.5096 15.3321 15.27C15.3264 15.3355 15.3342 15.4014 15.355 15.4638C15.3759 15.5261 15.4093 15.5835 15.4533 15.6323C15.4972 15.6812 15.5508 15.7204 15.6106 15.7477C15.6704 15.775 15.7351 15.7897 15.8008 15.7909C15.8008 15.7909 16.3738 16.1659 16.3738 18.395C16.4032 19.2654 16.3579 20.1366 16.2383 20.9992C14.9154 20.7596 13.0821 17.4575 12.2071 15.0825C12.1673 14.9786 12.0952 14.8902 12.0015 14.8302C11.9078 14.7702 11.7973 14.7418 11.6863 14.7492H7.51959C7.44254 14.7479 7.36616 14.7638 7.29598 14.7956C7.2258 14.8274 7.16355 14.8744 7.11373 14.9332C7.0639 14.992 7.02775 15.0611 7.00787 15.1356C6.98798 15.21 6.98487 15.288 6.99875 15.3638C7.58209 18.5096 14.1967 28.2909 18.4571 28.2909H20.5404C21.6446 28.2909 21.7279 27.0929 21.7904 26.3013C21.8529 25.5096 21.905 25.1659 22.1029 25.1659C22.7488 25.1659 24.0717 26.3117 24.9363 27.0617C25.8008 27.8117 26.3633 28.2909 26.7904 28.2909H29.3946C30.7383 28.2909 31.9988 28.2909 31.9988 27.2492C31.9988 26.8534 31.655 26.395 29.6758 24.1242C29.0196 23.4054 28.1342 22.4159 27.8321 22.0409Z" fill="white"/>
</g>
<defs>
<clipPath id="clip0_131_2197">
<rect width="25" height="25" fill="white" transform="translate(7 8.5)"/>
</clipPath>
</defs>
</svg>
