<svg width="40" height="40" viewBox="0 0 40 40" fill="none" xmlns="http://www.w3.org/2000/svg">
<g clip-path="url(#clip0_131_2188)">
<path d="M20 40C31.0457 40 40 31.0457 40 20C40 8.9543 31.0457 0 20 0C8.9543 0 0 8.9543 0 20C0 31.0457 8.9543 40 20 40Z" fill="#33CC1A"/>
<g clip-path="url(#clip1_131_2188)">
<path d="M25.6576 21.8653C25.6111 21.842 23.8714 20.9445 23.5623 20.8279C23.4361 20.7804 23.3009 20.7341 23.1571 20.7341C22.9222 20.7341 22.7248 20.8567 22.5711 21.0976C22.3973 21.3683 21.8712 22.0125 21.7087 22.205C21.6874 22.2304 21.6585 22.2607 21.6411 22.2607C21.6255 22.2607 21.3563 22.1446 21.2748 22.1075C19.4085 21.2582 17.992 19.2159 17.7977 18.8715C17.77 18.822 17.7688 18.7995 17.7686 18.7995C17.7754 18.7733 17.8382 18.7074 17.8706 18.6734C17.9653 18.5752 18.068 18.4457 18.1673 18.3205C18.2144 18.2611 18.2615 18.2017 18.3077 18.1457C18.4518 17.97 18.516 17.8337 18.5904 17.6757L18.6293 17.5937C18.8109 17.2157 18.6558 16.8967 18.6057 16.7937C18.5646 16.7075 17.83 14.8502 17.7519 14.655C17.5641 14.1842 17.3159 13.9649 16.971 13.9649C16.939 13.9649 16.971 13.9649 16.8368 13.9709C16.6734 13.9781 15.7836 14.1008 15.3902 14.3606C14.9729 14.6362 14.2671 15.5146 14.2671 17.0594C14.2671 18.4498 15.1093 19.7625 15.4709 20.2618C15.4799 20.2744 15.4964 20.2999 15.5203 20.3366C16.9051 22.4553 18.6314 24.0254 20.3814 24.7578C22.0662 25.4628 22.864 25.5443 23.3176 25.5443H23.3177C23.5083 25.5443 23.6608 25.5287 23.7954 25.5148L23.8808 25.5063C24.4628 25.4522 25.7419 24.7579 26.0328 23.9109C26.262 23.2438 26.3224 22.5149 26.1699 22.2503C26.0655 22.0705 25.8855 21.98 25.6576 21.8653Z" fill="white"/>
<path d="M20.1436 7.5C13.6806 7.5 8.42255 12.967 8.42255 19.6869C8.42255 21.8604 8.97777 23.9879 10.0296 25.8499L8.01641 32.0711C7.97891 32.1871 8.0068 32.3153 8.0887 32.4027C8.14781 32.4659 8.228 32.5 8.3099 32.5C8.34128 32.5 8.37289 32.495 8.40373 32.4847L14.5959 30.4234C16.2903 31.3718 18.2055 31.8725 20.1437 31.8725C26.6061 31.8726 31.8636 26.4061 31.8636 19.6869C31.8636 12.967 26.6061 7.5 20.1436 7.5ZM20.1436 29.3339C18.3198 29.3339 16.5534 28.7822 15.035 27.7384C14.9839 27.7032 14.9246 27.6852 14.865 27.6852C14.8334 27.6852 14.8018 27.6903 14.7711 27.7005L11.6692 28.7334L12.6705 25.6386C12.7029 25.5384 12.6867 25.4279 12.627 25.3425C11.4707 23.6873 10.8595 21.7317 10.8595 19.6869C10.8595 14.3669 15.0243 10.0386 20.1436 10.0386C25.2621 10.0386 29.4265 14.3669 29.4265 19.6869C29.4266 25.0063 25.2623 29.3339 20.1436 29.3339Z" fill="white"/>
</g>
</g>
<defs>
<clipPath id="clip0_131_2188">
<rect width="40" height="40" fill="white"/>
</clipPath>
<clipPath id="clip1_131_2188">
<rect width="23.8636" height="25" fill="white" transform="translate(8 7.5)"/>
</clipPath>
</defs>
</svg>
