<svg width="40" height="40" viewBox="0 0 40 40" fill="none" xmlns="http://www.w3.org/2000/svg">
<g clip-path="url(#clip0_131_2194)">
<path d="M20 40C31.0457 40 40 31.0457 40 20C40 8.9543 31.0457 0 20 0C8.9543 0 0 8.9543 0 20C0 31.0457 8.9543 40 20 40Z" fill="#42B6F0"/>
<path d="M8.1175 17.8069L29.4016 9.60044C30.3895 9.24356 31.2522 9.84143 30.9321 11.3352L30.934 11.3333L27.31 28.4066C27.0414 29.6171 26.3221 29.9114 25.3159 29.3411L19.7971 25.2738L17.1352 27.8382C16.8409 28.1325 16.5925 28.3809 16.0222 28.3809L16.4141 22.7646L26.6422 13.5243C27.0874 13.1325 26.5429 12.9117 25.956 13.3017L13.3162 21.2598L7.86732 19.56C6.68446 19.1847 6.65871 18.3771 8.1175 17.8069Z" fill="white"/>
</g>
<defs>
<clipPath id="clip0_131_2194">
<rect width="40" height="40" fill="white"/>
</clipPath>
</defs>
</svg>
