<svg width="43" height="46" viewBox="0 0 43 46" fill="none" xmlns="http://www.w3.org/2000/svg">
<path d="M37.4138 49H1V17.9655L22.1034 1L41.9655 17.9655V43.6207H37.4138V20.8621L22.1034 7.62069L5.96552 20.8621V43.6207H15.4828M15.4828 37.4138L28.3103 20.0345M29.9655 34.931C29.9655 33.5598 28.8539 32.4483 27.4828 32.4483C26.1116 32.4483 25 33.5598 25 34.931C25 36.3022 26.1116 37.4138 27.4828 37.4138C28.8539 37.4138 29.9655 36.3022 29.9655 34.931ZM18.3793 23.3448V23.3448C18.3793 24.716 17.2677 25.8276 15.8966 25.8276V25.8276C14.5254 25.8276 13.4138 24.716 13.4138 23.3448V23.3448C13.4138 21.9736 14.5254 20.8621 15.8966 20.8621V20.8621C17.2677 20.8621 18.3793 21.9736 18.3793 23.3448Z" stroke="#FF9900"/>
</svg>
