<svg width="39" height="48" viewBox="0 0 39 48" fill="none" xmlns="http://www.w3.org/2000/svg">
<path d="M0 7.0873H4.09804L13.0392 16.0397M31.6667 37.6746V34.6905L20.4902 23.5M31.6667 37.6746H31.8471C34.4222 37.6746 36.5098 39.7622 36.5098 42.3373V42.3373C36.5098 44.9124 34.4222 47 31.8471 47H31.1137C28.5385 47 26.451 44.9124 26.451 42.3373V42.3373C26.451 39.7622 28.5385 37.6746 31.1137 37.6746H31.6667ZM31.6667 37.6746H10.8039L20.4902 23.5M13.0392 16.0397H3.35294V19.0238H4.84314M13.0392 16.0397H18.6275M13.0392 16.0397L20.4902 23.5M34.6471 16.0397H36.3235M36.3235 16.0397H38V19.0238H36.3235M36.3235 16.0397L32.0392 5.59524M32.0392 5.59524L21.9804 0M32.0392 5.59524L21.9804 16.0397M21.9804 0H18.6275V16.0397M21.9804 0V16.0397M18.6275 16.0397H21.9804M32.0392 16.0397H21.9804M4.84314 19.0238V27.9762H14.5294M4.84314 19.0238H36.3235M36.3235 19.0238V27.9762H17.8824M9.49417 37.6746H8.76074C6.1856 37.6746 4.09804 39.7622 4.09804 42.3373V42.3373C4.09804 44.9124 6.1856 47 8.76073 47H9.49416C12.0693 47 14.1569 44.9124 14.1569 42.3373V42.3373C14.1569 39.7622 12.0693 37.6746 9.49417 37.6746Z" stroke="#FF9900"/>
</svg>
