<svg width="163" height="50" viewBox="0 0 163 50" fill="none" xmlns="http://www.w3.org/2000/svg">
<g clip-path="url(#clip0_1052_4488)">
<path d="M157.762 29.3971C156.924 29.3971 156.254 29.3193 155.748 29.166C155.241 29.0105 154.876 28.75 154.647 28.3802C154.422 28.0063 154.311 27.4937 154.311 26.8424V25.3487C154.311 24.7038 154.422 24.1954 154.647 23.8256C154.876 23.4517 155.243 23.187 155.748 23.0315C156.252 22.876 156.924 22.8004 157.762 22.8004H158.17C159.008 22.8004 159.678 22.8802 160.184 23.0399C160.689 23.1933 161.054 23.458 161.279 23.8319C161.504 24.2017 161.615 24.7059 161.615 25.3466V26.8403C161.615 27.4853 161.502 27.9958 161.279 28.3697C161.054 28.7395 160.689 29.0042 160.184 29.1618C159.678 29.3172 159.008 29.3929 158.17 29.3929H157.762V29.3971ZM157.762 28.3655H158.17C158.844 28.3655 159.353 28.3277 159.699 28.2521C160.046 28.1765 160.279 28.0294 160.401 27.8109C160.523 27.5861 160.584 27.2542 160.584 26.8151V25.3823C160.584 24.9328 160.521 24.5987 160.395 24.3781C160.269 24.1534 160.033 24.0063 159.687 23.937C159.34 23.8676 158.836 23.8319 158.17 23.8319H157.762C157.088 23.8319 156.577 23.8676 156.224 23.937C155.878 24.0063 155.645 24.1555 155.523 24.3781C155.401 24.5987 155.34 24.9328 155.34 25.3823V26.8151C155.34 27.2542 155.401 27.5861 155.523 27.8109C155.645 28.0315 155.878 28.1786 156.224 28.2521C156.575 28.3277 157.088 28.3655 157.762 28.3655Z" fill="#FF9900"/>
<path d="M152.685 23.8319H149.042C148.794 23.8319 148.628 23.876 148.544 23.9643C148.46 24.0525 148.418 24.229 148.418 24.4916V28.8844C148.418 29.292 148.248 29.4958 147.906 29.4958C147.563 29.4958 147.387 29.292 147.387 28.8844V24.666C147.387 23.9727 147.5 23.4895 147.731 23.2143C147.96 22.9391 148.366 22.8004 148.946 22.8004H152.685C153.112 22.8004 153.324 22.9706 153.324 23.313C153.324 23.6555 153.112 23.8319 152.685 23.8319Z" fill="#FF9900"/>
<path d="M141.782 29.3971C140.944 29.3971 140.273 29.3193 139.767 29.166C139.263 29.0105 138.895 28.75 138.666 28.3802C138.441 28.0063 138.33 27.4937 138.33 26.8424V25.3487C138.33 24.7038 138.441 24.1954 138.666 23.8256C138.895 23.4517 139.263 23.187 139.767 23.0315C140.273 22.876 140.944 22.8004 141.782 22.8004H142.189C143.028 22.8004 143.698 22.8802 144.204 23.0399C144.708 23.1933 145.074 23.458 145.299 23.8319C145.523 24.2017 145.635 24.7059 145.635 25.3466V26.8403C145.635 27.4853 145.523 27.9958 145.299 28.3697C145.074 28.7395 144.708 29.0042 144.204 29.1618C143.698 29.3172 143.028 29.3929 142.189 29.3929H141.782V29.3971ZM141.782 28.3655H142.189C142.864 28.3655 143.372 28.3277 143.719 28.2521C144.065 28.1765 144.299 28.0294 144.42 27.8109C144.542 27.5861 144.603 27.2542 144.603 26.8151V25.3823C144.603 24.9328 144.54 24.5987 144.414 24.3781C144.288 24.1534 144.051 24.0063 143.706 23.937C143.362 23.8676 142.855 23.8319 142.189 23.8319H141.782C141.107 23.8319 140.595 23.8676 140.244 23.937C139.897 24.0063 139.664 24.1555 139.542 24.3781C139.42 24.5987 139.359 24.9328 139.359 25.3823V26.8151C139.359 27.2542 139.42 27.5861 139.542 27.8109C139.664 28.0315 139.897 28.1786 140.244 28.2521C140.595 28.3277 141.107 28.3655 141.782 28.3655Z" fill="#FF9900"/>
<path d="M130.204 29.4958C129.864 29.4958 129.691 29.292 129.691 28.8844V23.3256C129.691 22.9096 129.853 22.7017 130.175 22.7017C130.54 22.7017 130.723 22.9096 130.723 23.3256V25.3886H135.509V23.3256C135.509 22.9096 135.679 22.7017 136.021 22.7017C136.364 22.7017 136.54 22.9096 136.54 23.3256V28.8844C136.54 29.292 136.368 29.4958 136.021 29.4958C135.675 29.4958 135.509 29.292 135.509 28.8844V26.4222H130.723V28.8844C130.723 29.292 130.551 29.4958 130.204 29.4958Z" fill="#FF9900"/>
<path d="M124.403 29.3971C123.565 29.3971 122.894 29.3193 122.388 29.166C121.882 29.0105 121.516 28.75 121.287 28.3802C121.063 28.0063 120.951 27.4937 120.951 26.8424V25.3487C120.951 24.7038 121.063 24.1954 121.287 23.8256C121.516 23.4517 121.884 23.187 122.388 23.0315C122.892 22.876 123.565 22.8004 124.403 22.8004H126.397C126.766 22.8004 127.063 22.8655 127.287 22.9958C127.516 23.1218 127.682 23.3067 127.785 23.5504C127.888 23.7941 127.939 24.0861 127.939 24.4286C127.939 24.6723 127.894 24.8571 127.804 24.9832C127.72 25.105 127.592 25.166 127.418 25.166C127.243 25.166 127.115 25.105 127.031 24.9832C126.947 24.8571 126.905 24.6975 126.905 24.5063C126.901 24.2668 126.859 24.0966 126.779 23.9937C126.703 23.8865 126.537 23.8319 126.281 23.8319H124.401C123.726 23.8319 123.216 23.8676 122.863 23.937C122.516 24.0063 122.283 24.1555 122.161 24.3781C122.039 24.5987 121.978 24.9328 121.978 25.3823V26.8151C121.978 27.2542 122.039 27.5861 122.161 27.8109C122.283 28.0315 122.516 28.1786 122.863 28.2521C123.214 28.3277 123.726 28.3655 124.401 28.3655H126.281C126.544 28.3655 126.712 28.3172 126.785 28.2185C126.861 28.1155 126.901 27.9433 126.905 27.6996C126.905 27.4937 126.949 27.3319 127.039 27.2164C127.128 27.0945 127.252 27.0336 127.411 27.0336C127.571 27.0336 127.703 27.0945 127.798 27.2164C127.892 27.334 127.939 27.5189 127.939 27.771C127.939 28.1218 127.884 28.4181 127.777 28.6618C127.674 28.9055 127.508 29.0903 127.279 29.2164C127.05 29.3382 126.749 29.3992 126.38 29.3992H124.401L124.403 29.3971Z" fill="#FF9900"/>
<path d="M118.688 29.4958C118.567 29.4958 118.474 29.458 118.407 29.3824C118.342 29.3068 118.296 29.1597 118.266 28.9412C118.243 28.7206 118.23 28.3971 118.23 27.9664L118.371 28.2963C118.085 28.6996 117.728 28.9832 117.298 29.1513C116.867 29.3152 116.356 29.3971 115.768 29.3971H114.464C113.976 29.3971 113.579 29.2332 113.27 28.9055C112.966 28.5736 112.814 28.0694 112.814 27.3971C112.814 26.9391 112.89 26.5631 113.039 26.2668C113.188 25.9664 113.411 25.7311 113.705 25.5589C114.004 25.3866 114.367 25.2647 114.793 25.1933C115.224 25.1177 115.716 25.082 116.268 25.082H118.646L118.184 25.5105V24.437C118.184 24.2038 118.142 24.0442 118.058 23.9601C117.978 23.8761 117.812 23.8341 117.56 23.8341H115.581C115.132 23.8341 114.783 23.853 114.535 23.8908C114.287 23.9244 114.111 23.9853 114.008 24.0736C113.905 24.1576 113.85 24.2732 113.846 24.4181C113.831 24.6324 113.791 24.7921 113.726 24.895C113.665 24.9979 113.533 25.0505 113.327 25.0505C112.987 25.0505 112.814 24.8236 112.814 24.3698C112.814 23.832 113.037 23.437 113.48 23.1849C113.93 22.9328 114.596 22.8068 115.48 22.8068H117.655C118.235 22.8068 118.64 22.9454 118.869 23.2206C119.098 23.4958 119.214 23.9811 119.214 24.6723V28.8908C119.214 29.2984 119.039 29.5021 118.686 29.5021L118.688 29.4958ZM114.499 28.4076H115.77C116.644 28.4076 117.268 28.2059 117.638 27.8047C118.008 27.4013 118.191 26.7837 118.186 25.9517L118.312 26.0715H116.27C115.686 26.0715 115.216 26.1051 114.859 26.1702C114.504 26.2311 114.245 26.353 114.088 26.5358C113.928 26.7185 113.848 26.9895 113.848 27.3509C113.848 27.7122 113.909 27.9622 114.031 28.1429C114.153 28.3215 114.31 28.4097 114.501 28.4097L114.499 28.4076Z" fill="#FF9900"/>
<path d="M105.225 29.4958C105.072 29.4958 104.948 29.4412 104.853 29.3341C104.765 29.2269 104.719 29.0862 104.719 28.9139V23.2858C104.719 23.103 104.765 22.9601 104.86 22.8572C104.958 22.7542 105.088 22.7017 105.252 22.7017C105.402 22.7017 105.521 22.7563 105.61 22.8635C105.704 22.9664 105.75 23.1072 105.75 23.2837V25.5715H107.147C107.265 25.5715 107.395 25.4937 107.54 25.3404C107.685 25.1807 107.872 24.9265 108.101 24.5757C108.28 24.3047 108.486 24.0231 108.719 23.7332C108.952 23.4433 109.257 23.1954 109.631 22.9895C110 22.7879 110.408 22.687 110.851 22.687C111.057 22.687 111.221 22.7311 111.343 22.8194C111.465 22.9076 111.525 23.0358 111.525 23.1975C111.525 23.3803 111.465 23.5126 111.343 23.5967C111.221 23.6765 111.061 23.7164 110.866 23.7164C110.595 23.7206 110.343 23.8194 110.107 24.0105C109.878 24.2017 109.618 24.5084 109.328 24.9307C109.217 25.0988 109.116 25.2458 109.025 25.3719C108.937 25.4937 108.855 25.6009 108.78 25.6954C108.704 25.7879 108.628 25.8761 108.549 25.9559C108.95 26.1282 109.292 26.3593 109.574 26.6429C109.86 26.9244 110.055 27.2143 110.164 27.5126C110.29 27.8257 110.408 28.0631 110.515 28.2206C110.622 28.3761 110.74 28.4538 110.866 28.4601C111.057 28.4601 111.215 28.5042 111.336 28.5925C111.462 28.6807 111.525 28.8068 111.525 28.9706C111.525 29.3173 111.303 29.4895 110.86 29.4895C110.532 29.4895 110.254 29.4265 110.025 29.3005C109.796 29.1744 109.612 28.9979 109.471 28.7752C109.349 28.5967 109.244 28.4139 109.156 28.2269C109.067 28.0358 108.956 27.8425 108.826 27.6513C108.696 27.4538 108.511 27.2647 108.271 27.082C107.883 26.7584 107.254 26.5967 106.383 26.5967H105.75V28.9202C105.75 29.0925 105.704 29.2311 105.61 29.3341C105.515 29.437 105.387 29.4895 105.223 29.4895L105.225 29.4958Z" fill="#FF9900"/>
<path d="M96.1233 31.9517C95.7872 31.9517 95.6191 31.7374 95.6191 31.3067V23.313C95.6191 22.9054 95.7956 22.7017 96.1465 22.7017C96.3292 22.7017 96.4574 22.7605 96.533 22.8781C96.6086 22.9895 96.6444 23.1849 96.6444 23.4601V24.0147L96.4616 23.7689C96.7473 23.4328 97.1086 23.187 97.5498 23.0315C97.9889 22.8781 98.4994 22.8004 99.0792 22.8004H99.4868C100.325 22.8004 100.993 22.8802 101.493 23.0399C101.997 23.1954 102.363 23.458 102.588 23.834C102.812 24.2038 102.924 24.708 102.924 25.3487V26.8424C102.924 27.4874 102.81 27.9979 102.588 28.3718C102.363 28.7416 102.001 29.0063 101.499 29.1638C101.004 29.3193 100.342 29.3949 99.5141 29.3949H96.6507V31.3046C96.6507 31.7353 96.4763 31.9496 96.1233 31.9496V31.9517ZM96.6486 28.3655H99.512C100.176 28.3655 100.68 28.3277 101.02 28.2542C101.363 28.1786 101.592 28.0315 101.707 27.813C101.829 27.5882 101.89 27.2563 101.89 26.8172V25.3865C101.89 24.937 101.827 24.6029 101.701 24.3823C101.579 24.1575 101.346 24.0105 100.999 23.9412C100.653 23.8718 100.149 23.8361 99.4826 23.8361H99.075C98.2515 23.8361 97.6402 24.0231 97.2431 24.397C96.846 24.7668 96.6465 25.3277 96.6465 26.0819V28.3697L96.6486 28.3655Z" fill="#FF9900"/>
<path d="M93.1689 29.4958C93.047 29.4958 92.9546 29.458 92.8874 29.3824C92.8222 29.3068 92.776 29.1597 92.7466 28.9412C92.7235 28.7206 92.7109 28.3971 92.7109 27.9664L92.8516 28.2963C92.5659 28.6996 92.2088 28.9832 91.7781 29.1513C91.3474 29.3152 90.8369 29.3971 90.2487 29.3971H88.9441C88.4567 29.3971 88.0596 29.2332 87.7508 28.9055C87.4462 28.5736 87.2949 28.0694 87.2949 27.3971C87.2949 26.9391 87.3706 26.5631 87.5197 26.2668C87.6689 25.9664 87.8916 25.7311 88.1857 25.5589C88.484 25.3866 88.8474 25.2647 89.2739 25.1933C89.7046 25.1177 90.1962 25.082 90.7466 25.082H93.1248L92.6626 25.5105V24.437C92.6626 24.2038 92.6206 24.0442 92.5365 23.9601C92.4567 23.8761 92.2907 23.8341 92.0386 23.8341H90.0596C89.61 23.8341 89.2613 23.853 89.0134 23.8908C88.7655 23.9244 88.5911 23.9853 88.4882 24.0736C88.3853 24.1576 88.3306 24.2732 88.3264 24.4181C88.3117 24.6324 88.2718 24.7921 88.2067 24.895C88.1458 24.9979 88.0134 25.0505 87.8075 25.0505C87.4651 25.0505 87.2949 24.8236 87.2949 24.3698C87.2949 23.832 87.5176 23.437 87.9609 23.1849C88.4105 22.9328 89.0764 22.8068 89.9609 22.8068H92.1374C92.7172 22.8068 93.1227 22.9454 93.3516 23.2206C93.5806 23.4958 93.6962 23.9811 93.6962 24.6723V28.8908C93.6962 29.2984 93.5218 29.5021 93.171 29.5021L93.1689 29.4958ZM88.9798 28.4076H90.2508C91.1248 28.4076 91.7487 28.2059 92.1185 27.8047C92.4882 27.4013 92.671 26.7837 92.6668 25.9517L92.7928 26.0715H90.7508C90.1668 26.0715 89.6962 26.1051 89.3411 26.1702C88.9861 26.2311 88.7277 26.353 88.5701 26.5358C88.4105 26.7185 88.3306 26.9895 88.3306 27.3509C88.3306 27.7122 88.3916 27.9622 88.5134 28.1429C88.6353 28.3215 88.7928 28.4097 88.984 28.4097L88.9798 28.4076Z" fill="#FF9900"/>
<path d="M79.7036 29.4958C79.5502 29.4958 79.4263 29.4412 79.3317 29.3341C79.2435 29.2269 79.1973 29.0862 79.1973 28.9139V23.2858C79.1973 23.103 79.2435 22.9601 79.338 22.8572C79.4368 22.7542 79.567 22.7017 79.7309 22.7017C79.88 22.7017 79.9998 22.7563 80.088 22.8635C80.1826 22.9664 80.2288 23.1072 80.2288 23.2837V25.5715H81.6258C81.7435 25.5715 81.8737 25.4937 82.0187 25.3404C82.1637 25.1807 82.3506 24.9265 82.5796 24.5757C82.7582 24.3047 82.9641 24.0231 83.1973 23.7332C83.4305 23.4433 83.7351 23.1954 84.109 22.9895C84.4788 22.7879 84.8863 22.687 85.3296 22.687C85.5355 22.687 85.6994 22.7311 85.8212 22.8194C85.9431 22.9076 86.004 23.0358 86.004 23.1975C86.004 23.3803 85.9431 23.5126 85.8212 23.5967C85.6994 23.6765 85.5397 23.7164 85.3443 23.7164C85.0733 23.7206 84.8212 23.8194 84.5859 24.0105C84.3569 24.2017 84.0964 24.5084 83.8065 24.9307C83.6952 25.0988 83.5943 25.2458 83.504 25.3719C83.4158 25.4937 83.3338 25.6009 83.2582 25.6954C83.1826 25.7879 83.1069 25.8761 83.0271 25.9559C83.4305 26.1282 83.7708 26.3593 84.0523 26.6429C84.338 26.9244 84.5334 27.2143 84.6426 27.5126C84.7687 27.8257 84.8863 28.0631 84.9935 28.2206C85.1006 28.3761 85.2183 28.4538 85.3443 28.4601C85.5355 28.4601 85.6931 28.5042 85.8149 28.5925C85.941 28.6807 86.004 28.8068 86.004 28.9706C86.004 29.3173 85.7813 29.4895 85.338 29.4895C85.0103 29.4895 84.733 29.4265 84.504 29.3005C84.275 29.1744 84.0901 28.9979 83.9494 28.7752C83.8275 28.5967 83.7225 28.4139 83.6342 28.2269C83.546 28.0358 83.4347 27.8425 83.3044 27.6513C83.1742 27.4538 82.9893 27.2647 82.7498 27.082C82.3611 26.7584 81.733 26.5967 80.8611 26.5967H80.2288V28.9202C80.2288 29.0925 80.1826 29.2311 80.088 29.3341C79.9935 29.437 79.8653 29.4895 79.7015 29.4895L79.7036 29.4958Z" fill="#FF9900"/>
<path d="M66.4925 31.9517C66.1563 31.9517 65.9883 31.7374 65.9883 31.3067V23.313C65.9883 22.9054 66.1626 22.7017 66.5156 22.7017C66.6984 22.7017 66.8265 22.7605 66.9021 22.8781C66.9778 22.9895 67.0156 23.1849 67.0156 23.4601V24.0147L66.8328 23.7689C67.1185 23.4328 67.4799 23.187 67.9211 23.0315C68.3601 22.8781 68.8706 22.8004 69.4505 22.8004H69.858C70.6963 22.8004 71.3643 22.8802 71.8643 23.0399C72.3706 23.1954 72.7341 23.458 72.9589 23.834C73.1837 24.2038 73.295 24.708 73.295 25.3487V26.8424C73.295 27.4874 73.1816 27.9979 72.9589 28.3718C72.7341 28.7416 72.3727 29.0063 71.8706 29.1638C71.3748 29.3193 70.7131 29.3949 69.8853 29.3949H67.0219V31.3046C67.0219 31.7353 66.8475 31.9496 66.4946 31.9496L66.4925 31.9517ZM67.0177 28.3655H69.8811C70.545 28.3655 71.0492 28.3277 71.3895 28.2542C71.732 28.1786 71.961 28.0315 72.0765 27.813C72.1984 27.5882 72.2593 27.2563 72.2593 26.8172V25.3865C72.2593 24.937 72.1963 24.6029 72.0702 24.3823C71.9484 24.1575 71.7152 24.0105 71.3685 23.9412C71.0219 23.8718 70.5177 23.8361 69.8538 23.8361H69.4463C68.6227 23.8361 68.0114 24.0231 67.6143 24.397C67.2173 24.7668 67.0177 25.3277 67.0177 26.0819V28.3697V28.3655Z" fill="black"/>
<path d="M61.581 29.4958C61.207 29.4958 61.0201 29.3067 61.0201 28.9265V23.8319H58.9634C58.5516 23.8319 58.3457 23.6597 58.3457 23.313C58.3457 22.9664 58.5516 22.8004 58.9634 22.8004H64.2049C64.6125 22.8004 64.8163 22.9706 64.8163 23.313C64.8163 23.6555 64.6125 23.8319 64.2049 23.8319H62.1566V28.9265C62.1566 29.0987 62.1062 29.2374 62.0012 29.3403C61.8982 29.4433 61.7575 29.4958 61.581 29.4958Z" fill="black"/>
<path d="M50.831 29.4958C50.4885 29.4958 50.3184 29.292 50.3184 28.8844V23.3256C50.3184 22.9096 50.4801 22.7017 50.8037 22.7017C51.1692 22.7017 51.352 22.9096 51.352 23.3256V25.3886H56.1377V23.3256C56.1377 22.9096 56.3079 22.7017 56.6503 22.7017C56.9927 22.7017 57.1692 22.9096 57.1692 23.3256V28.8844C57.1692 29.292 56.9969 29.4958 56.6503 29.4958C56.3037 29.4958 56.1377 29.292 56.1377 28.8844V26.4222H51.352V28.8844C51.352 29.292 51.1797 29.4958 50.8331 29.4958H50.831Z" fill="black"/>
<path d="M44.7407 29.3971C43.9025 29.3971 43.2323 29.3193 42.726 29.166C42.2218 29.0105 41.8542 28.75 41.6252 28.3802C41.4004 28.0063 41.2891 27.4937 41.2891 26.8424V25.3487C41.2891 24.7038 41.4025 24.1954 41.6252 23.8256C41.8542 23.4517 42.2218 23.187 42.726 23.0315C43.2323 22.876 43.9025 22.8004 44.7407 22.8004H45.1483C45.9865 22.8004 46.6567 22.8802 47.163 23.0399C47.6672 23.1933 48.0328 23.458 48.2576 23.8319C48.4823 24.2017 48.5937 24.7059 48.5937 25.3466V26.042H42.3206V26.8151C42.3206 27.2542 42.3815 27.5861 42.5034 27.8109C42.6252 28.0315 42.8584 28.1786 43.205 28.2521C43.5559 28.3277 44.0685 28.3655 44.7428 28.3655H46.8332C47.0769 28.3655 47.2407 28.3193 47.3248 28.2248C47.413 28.126 47.4571 27.9517 47.4571 27.6975C47.4571 27.4874 47.5034 27.3235 47.5979 27.2059C47.6924 27.0882 47.8185 27.0294 47.976 27.0294C48.1399 27.0336 48.266 27.0966 48.3542 27.2185C48.4424 27.3361 48.4886 27.5042 48.4886 27.7227C48.4886 28.0819 48.4361 28.3886 48.3332 28.6429C48.2302 28.8908 48.0643 29.0777 47.8353 29.2038C47.6063 29.3298 47.3038 29.3929 46.9298 29.3929H44.7407V29.3971ZM42.3206 25.0105H47.5559C47.5181 24.542 47.3605 24.2332 47.079 24.084C46.9109 23.9895 46.663 23.9244 46.3353 23.8865C46.0118 23.8487 45.6168 23.8298 45.1483 23.8298H44.7407C44.2491 23.8298 43.8416 23.8487 43.5202 23.8865C43.1966 23.9244 42.955 23.9874 42.7912 24.0756C42.5055 24.2248 42.35 24.5357 42.3206 25.0084V25.0105Z" fill="black"/>
<path d="M39.4236 30.687C39.0832 30.687 38.911 30.4706 38.911 30.042V29.3971H33.0938V21.1576C33.0938 20.7311 33.2639 20.5189 33.6064 20.5189C33.9488 20.5189 34.1253 20.7311 34.1253 21.1576V28.3656H38.098V21.1576C38.098 20.7311 38.2681 20.5189 38.6106 20.5189C38.953 20.5189 39.1295 20.7311 39.1295 21.1576V28.3719C39.4047 28.3866 39.6085 28.4748 39.7408 28.6387C39.8774 28.8025 39.9446 29.0462 39.9446 29.3677V30.042C39.9446 30.4727 39.7723 30.687 39.4257 30.687H39.4236Z" fill="black"/>
<path d="M30.9121 32.8761H162.421V49.9643H30.9121V32.8761Z" fill="black"/>
<path d="M150.314 46.6239C149.841 46.6239 149.604 46.4663 149.604 46.1533C149.604 45.8403 149.807 45.6911 150.217 45.6911C150.526 45.6911 150.795 45.5693 151.026 45.3277C151.257 45.084 151.438 44.7416 151.568 44.2983C151.656 43.9853 151.772 43.71 151.914 43.4726C152.061 43.231 152.246 43.0105 152.465 42.8151C151.837 42.6974 151.387 42.4726 151.116 42.1407C150.843 41.8088 150.709 41.3571 150.709 40.7815C150.709 40.0588 150.833 39.5189 151.083 39.1575C151.337 38.7962 151.746 38.5546 152.307 38.4306C152.875 38.3067 153.635 38.2437 154.589 38.2437H157.253C157.396 38.2437 157.501 38.2962 157.572 38.4033C157.65 38.5042 157.688 38.6554 157.688 38.8571V46.0651C157.688 46.2374 157.646 46.3697 157.564 46.4642C157.482 46.5588 157.366 46.6071 157.217 46.6071C157.068 46.6071 156.954 46.5588 156.87 46.4642C156.793 46.3697 156.755 46.2353 156.755 46.0651V42.9579H154.597C154.164 42.9579 153.809 43.0105 153.532 43.1176C153.261 43.2184 153.04 43.3844 152.875 43.6155C152.709 43.8466 152.572 44.1533 152.467 44.5399C152.295 45.1428 152.005 45.6428 151.597 46.0399C151.194 46.4306 150.769 46.626 150.32 46.626L150.314 46.6239ZM154.024 42.0252H156.748V39.1764H154.024C153.431 39.1764 152.961 39.2058 152.612 39.2647C152.263 39.3235 152.011 39.4537 151.858 39.6554C151.711 39.8571 151.635 40.1701 151.635 40.5966C151.635 41.0231 151.709 41.3487 151.858 41.5546C152.011 41.7563 152.263 41.8865 152.612 41.9453C152.961 41.9979 153.431 42.0252 154.024 42.0252Z" fill="white"/>
<path d="M147.496 46.6071C147.189 46.6071 147.034 46.3907 147.034 45.9601V39.542L140.935 46.4832H139.941V38.7521C139.941 38.3319 140.095 38.1218 140.404 38.1218C140.712 38.1218 140.874 38.334 140.874 38.7605V45.25L147.017 38.2458H147.967V45.9769C147.967 46.397 147.809 46.6071 147.496 46.6071Z" fill="white"/>
<path d="M129.773 46.6071C129.464 46.6071 129.311 46.4033 129.311 45.9958V38.7521C129.311 38.3319 129.453 38.1218 129.737 38.1218C130.073 38.1218 130.243 38.3319 130.243 38.7521V41.6554H136.405V38.7521C136.405 38.3319 136.558 38.1218 136.867 38.1218C137.176 38.1218 137.338 38.3319 137.338 38.7521V45.9958C137.338 46.4033 137.18 46.6071 136.867 46.6071C136.554 46.6071 136.405 46.4033 136.405 45.9958V42.5861H130.243V45.9958C130.243 46.4033 130.086 46.6071 129.773 46.6071Z" fill="white"/>
<path d="M122.568 46.4832C121.656 46.4832 120.915 46.395 120.339 46.2164C119.766 46.0337 119.339 45.7122 119.062 45.2585C118.789 44.8026 118.654 44.1618 118.654 43.332V41.3887C118.654 40.5652 118.791 39.9265 119.062 39.4706C119.339 39.0148 119.766 38.6975 120.339 38.5211C120.913 38.3383 121.656 38.2458 122.568 38.2458H123.083C123.988 38.2458 124.728 38.3383 125.301 38.5211C125.881 38.6996 126.308 39.0148 126.581 39.4706C126.854 39.9265 126.988 40.5652 126.988 41.3887V42.1072H119.585V43.3236C119.585 43.9517 119.671 44.4244 119.841 44.7437C120.014 45.0631 120.314 45.2795 120.747 45.3908C121.186 45.4979 121.791 45.5505 122.566 45.5505H125.035C125.406 45.5505 125.663 45.4706 125.797 45.311C125.94 45.1513 126.009 44.8887 126.009 44.5211C126.009 44.3026 126.053 44.1387 126.142 44.0337C126.236 43.9202 126.345 43.8656 126.469 43.8656C126.606 43.8656 126.717 43.9181 126.808 44.0253C126.896 44.1324 126.94 44.2837 126.94 44.4769C126.94 44.8677 126.892 45.2164 126.797 45.5253C126.703 45.8278 126.528 46.0631 126.274 46.2353C126.02 46.4013 125.646 46.4832 125.154 46.4832H122.562H122.568ZM119.585 41.1744H126.047C126.035 40.4286 125.854 39.916 125.505 39.6387C125.287 39.4559 124.976 39.3341 124.572 39.2753C124.175 39.2101 123.68 39.1786 123.081 39.1786H122.566C121.974 39.1786 121.484 39.208 121.091 39.2669C120.701 39.3194 120.394 39.4265 120.169 39.5862C119.791 39.8593 119.595 40.3887 119.583 41.1744H119.585Z" fill="white"/>
<path d="M112.094 46.4832C111.182 46.4832 110.44 46.395 109.865 46.2164C109.291 46.0337 108.865 45.7122 108.585 45.2585C108.312 44.8026 108.178 44.1618 108.178 43.332V41.3887C108.178 40.5652 108.314 39.9265 108.585 39.4706C108.863 39.0148 109.289 38.6975 109.865 38.5211C110.438 38.3383 111.182 38.2458 112.094 38.2458H112.608C113.514 38.2458 114.253 38.3383 114.827 38.5211C115.407 38.6996 115.833 39.0148 116.106 39.4706C116.377 39.9265 116.514 40.5652 116.514 41.3887V43.332C116.514 44.1597 116.377 44.8026 116.106 45.2585C115.833 45.7143 115.409 46.0337 114.827 46.2164C114.253 46.395 113.514 46.4832 112.608 46.4832H112.094ZM112.094 45.5505H112.608C113.384 45.5505 113.987 45.4979 114.419 45.3908C114.852 45.2774 115.153 45.0631 115.325 44.7437C115.497 44.4181 115.583 43.9454 115.583 43.3236V41.4055C115.583 40.7479 115.491 40.2627 115.308 39.9496C115.125 39.6303 114.816 39.4223 114.384 39.3278C113.951 39.2269 113.361 39.1765 112.608 39.1765H112.094C111.331 39.1765 110.73 39.2269 110.291 39.3278C109.858 39.4223 109.554 39.6303 109.377 39.9496C109.199 40.269 109.111 40.7543 109.111 41.4055V43.3236C109.111 43.9517 109.197 44.4244 109.369 44.7437C109.541 45.0631 109.842 45.2795 110.274 45.3908C110.711 45.4979 111.318 45.5505 112.094 45.5505Z" fill="white"/>
<path d="M98.1489 49.7143C97.8464 49.7143 97.6973 49.5042 97.6973 49.084V38.7332C97.6973 38.3256 97.8548 38.1198 98.1679 38.1198C98.3275 38.1198 98.4431 38.1723 98.5145 38.2794C98.5922 38.3866 98.63 38.5567 98.63 38.7941V39.8319L98.4704 39.6198C98.8086 39.1534 99.2393 38.8067 99.7666 38.5819C100.294 38.3571 100.912 38.2458 101.622 38.2458H102.136C103.042 38.2458 103.781 38.3382 104.355 38.521C104.928 38.6996 105.353 39.0147 105.624 39.4706C105.897 39.9265 106.031 40.5651 106.031 41.3887V43.3319C106.031 44.1597 105.895 44.8025 105.624 45.2584C105.351 45.7143 104.928 46.0336 104.355 46.2164C103.781 46.395 103.044 46.4832 102.145 46.4832H98.63V49.084C98.63 49.5042 98.4704 49.7143 98.151 49.7143H98.1489ZM98.6279 45.5504H102.143C102.918 45.5504 103.519 45.4979 103.945 45.3908C104.372 45.2773 104.67 45.063 104.842 44.7437C105.014 44.4181 105.099 43.9454 105.099 43.3235V41.4055C105.099 40.7479 105.006 40.2626 104.823 39.9496C104.641 39.6303 104.332 39.4223 103.901 39.3277C103.468 39.2269 102.88 39.1765 102.134 39.1765H101.62C100.636 39.1765 99.8905 39.4454 99.3821 39.9853C98.8779 40.5231 98.6279 41.3088 98.6279 42.3382V45.5525V45.5504Z" fill="white"/>
<path d="M92.3674 46.6071C92.0418 46.6071 91.8801 46.4201 91.8801 46.0483V39.1764H89.1805C88.7834 39.1764 88.5859 39.0189 88.5859 38.7058C88.5859 38.3928 88.7834 38.2437 89.1805 38.2437H95.546C95.9368 38.2437 96.1322 38.397 96.1322 38.7058C96.1322 39.0147 95.9368 39.1764 95.546 39.1764H92.8569V46.0483C92.8569 46.2268 92.8128 46.3613 92.7246 46.4558C92.6427 46.5567 92.5229 46.6071 92.3695 46.6071H92.3674Z" fill="white"/>
<path d="M83.0351 46.4832C82.1233 46.4832 81.3818 46.395 80.8061 46.2164C80.2326 46.0337 79.8061 45.7122 79.5267 45.2585C79.2536 44.8026 79.1191 44.1618 79.1191 43.332V41.3887C79.1191 40.5652 79.2557 39.9265 79.5267 39.4706C79.804 39.0148 80.2305 38.6975 80.8061 38.5211C81.3797 38.3383 82.1233 38.2458 83.0351 38.2458H85.5918C86.0603 38.2458 86.4175 38.3341 86.6654 38.5127C86.9133 38.6849 87.0855 38.9097 87.1801 39.187C87.2746 39.4643 87.3229 39.7585 87.3229 40.0652C87.3229 40.3488 87.2851 40.5526 87.2074 40.6765C87.1359 40.8005 87.0183 40.8635 86.8523 40.8635C86.6696 40.8635 86.5456 40.7921 86.4784 40.6513C86.4196 40.5085 86.3902 40.3614 86.3902 40.208C86.3838 39.9013 86.325 39.6513 86.2116 39.4622C86.1044 39.2732 85.8397 39.1786 85.4133 39.1786H83.0351C82.2725 39.1786 81.6717 39.229 81.2326 39.3299C80.7998 39.4244 80.4952 39.6324 80.3187 39.9517C80.1402 40.2711 80.0519 40.7564 80.0519 41.4076V43.3257C80.0519 43.9538 80.1381 44.4265 80.3103 44.7459C80.4826 45.0652 80.783 45.2816 81.2158 45.3929C81.6528 45.5001 82.2599 45.5526 83.0351 45.5526H85.4133C85.846 45.5526 86.1107 45.4643 86.2116 45.2858C86.3124 45.1072 86.3712 44.853 86.3902 44.5232C86.4028 44.2858 86.449 44.1177 86.533 44.0169C86.6149 43.916 86.7263 43.8656 86.8607 43.8656C87.0141 43.8656 87.1296 43.9244 87.2074 44.0421C87.2851 44.1597 87.3229 44.3614 87.3229 44.645C87.3229 44.9937 87.2704 45.3068 87.1633 45.5862C87.0624 45.8635 86.8817 46.0841 86.6212 46.2437C86.3607 46.4034 85.9994 46.4832 85.5393 46.4832H83.0351Z" fill="white"/>
<path d="M72.5623 46.4832C71.6505 46.4832 70.9089 46.395 70.3333 46.2164C69.7598 46.0337 69.3333 45.7122 69.056 45.2585C68.7829 44.8026 68.6484 44.1618 68.6484 43.332V41.3887C68.6484 40.5652 68.785 39.9265 69.056 39.4706C69.3333 39.0148 69.7598 38.6975 70.3333 38.5211C70.9068 38.3383 71.6505 38.2458 72.5623 38.2458H73.077C73.9825 38.2458 74.722 38.3383 75.2955 38.5211C75.8753 38.6996 76.3018 39.0148 76.5728 39.4706C76.8459 39.9265 76.9804 40.5652 76.9804 41.3887V43.332C76.9804 44.1597 76.8438 44.8026 76.5728 45.2585C76.2997 45.7143 75.8753 46.0337 75.2955 46.2164C74.722 46.395 73.9825 46.4832 73.077 46.4832H72.5623ZM72.5623 45.5505H73.077C73.8522 45.5505 74.4552 45.4979 74.8879 45.3908C75.3207 45.2774 75.6211 45.0631 75.7934 44.7437C75.9657 44.4181 76.0518 43.9454 76.0518 43.3236V41.4055C76.0518 40.7479 75.9594 40.2627 75.7766 39.9496C75.5938 39.6303 75.285 39.4223 74.8543 39.3278C74.4215 39.2269 73.8312 39.1765 73.0791 39.1765H72.5644C71.8018 39.1765 71.201 39.2269 70.7619 39.3278C70.3291 39.4223 70.0245 39.6303 69.848 39.9496C69.6695 40.269 69.5812 40.7543 69.5812 41.4055V43.3236C69.5812 43.9517 69.6673 44.4244 69.8396 44.7437C70.0119 45.0631 70.3123 45.2795 70.7451 45.3908C71.1821 45.4979 71.7892 45.5505 72.5644 45.5505H72.5623Z" fill="white"/>
<path d="M58.1673 46.6071C57.8605 46.6071 57.7051 46.4033 57.7051 45.9958V38.7521C57.7051 38.3319 57.8479 38.1218 58.1315 38.1218C58.3395 38.1218 58.5202 38.2353 58.6736 38.4601L61.9845 43.3949L65.3143 38.4601C65.4614 38.2353 65.6337 38.1218 65.829 38.1218C66.1316 38.1218 66.2807 38.3319 66.2807 38.7521V45.9958C66.2807 46.4033 66.1231 46.6071 65.8101 46.6071C65.4971 46.6071 65.3479 46.397 65.3479 45.9769V39.9054L62.2933 44.4958C62.2345 44.5903 62.1358 44.6386 62.0013 44.6386C61.9425 44.6386 61.8837 44.626 61.8227 44.6029C61.7639 44.5798 61.7156 44.5441 61.6799 44.4958L58.6357 39.9054V45.9769C58.6357 46.397 58.4782 46.6071 58.1652 46.6071H58.1673Z" fill="white"/>
<path d="M50.9257 46.4832C50.014 46.4832 49.2724 46.395 48.6967 46.2164C48.1232 46.0337 47.6967 45.7122 47.4173 45.2585C47.1442 44.8026 47.0098 44.1618 47.0098 43.332V41.3887C47.0098 40.5652 47.1463 39.9265 47.4173 39.4706C47.6946 39.0148 48.1211 38.6975 48.6967 38.5211C49.2703 38.3383 50.014 38.2458 50.9257 38.2458H51.4404C52.3459 38.2458 53.0854 38.3383 53.6589 38.5211C54.2388 38.6996 54.6652 39.0148 54.9362 39.4706C55.2093 39.9265 55.3438 40.5652 55.3438 41.3887V43.332C55.3438 44.1597 55.2072 44.8026 54.9362 45.2585C54.6631 45.7143 54.2388 46.0337 53.6589 46.2164C53.0854 46.395 52.3459 46.4832 51.4404 46.4832H50.9257ZM50.9257 45.5505H51.4404C52.2156 45.5505 52.8186 45.4979 53.2514 45.3908C53.6841 45.2774 53.9846 45.0631 54.1568 44.7437C54.3291 44.4181 54.4152 43.9454 54.4152 43.3236V41.4055C54.4152 40.7479 54.3228 40.2627 54.14 39.9496C53.9572 39.6303 53.6484 39.4223 53.2177 39.3278C52.785 39.2269 52.1946 39.1765 51.4425 39.1765H50.9278C50.1652 39.1765 49.5644 39.2269 49.1253 39.3278C48.6925 39.4223 48.3879 39.6303 48.2114 39.9496C48.0329 40.269 47.9446 40.7543 47.9446 41.4055V43.3236C47.9446 43.9517 48.0308 44.4244 48.203 44.7437C48.3753 45.0631 48.6757 45.2795 49.1085 45.3908C49.5455 45.4979 50.1526 45.5505 50.9278 45.5505H50.9257Z" fill="white"/>
<path d="M36.7889 48.1156C36.4759 48.1156 36.3184 47.9055 36.3184 47.4853V46.5883C36.3184 45.8908 36.6314 45.5442 37.2595 45.5505H37.8016L37.2679 45.7732C38.541 43.7374 39.1776 41.229 39.1776 38.2458H43.8478V45.5526H44.6104C45.2133 45.5526 45.5158 45.8992 45.5158 46.5904V47.4874C45.5158 47.9076 45.3625 48.1177 45.0537 48.1177C44.7448 48.1177 44.5831 47.9076 44.5831 47.4874V46.4853H37.2511V47.4874C37.2511 47.9076 37.0978 48.1177 36.7889 48.1177V48.1156ZM38.4381 45.5505H42.9045V39.1765H40.1251C40.1062 41.5148 39.5452 43.6387 38.4381 45.5505Z" fill="white"/>
<path d="M0 17.9643L21.334 0V23.1092L17.8571 25V50H0V17.9643Z" fill="#FF9900"/>
<path fill-rule="evenodd" clip-rule="evenodd" d="M30.455 0L9.12305 17.9643V50H18.1041V30.8466L21.2974 28.1618V23.3697H24.4907V25.4769L30.4571 20.4601V0H30.455Z" fill="black"/>
</g>
<defs>
<clipPath id="clip0_1052_4488">
<rect width="162.42" height="50" fill="white"/>
</clipPath>
</defs>
</svg>
