<svg width="237" height="73" viewBox="0 0 237 73" fill="none" xmlns="http://www.w3.org/2000/svg">
<g clip-path="url(#clip0_1052_6734)">
<path d="M230.205 42.9197C228.981 42.9197 228.004 42.8062 227.265 42.5823C226.526 42.3554 225.993 41.975 225.658 41.4352C225.33 40.8892 225.168 40.1408 225.168 39.19V37.0092C225.168 36.0675 225.33 35.3253 225.658 34.7854C225.993 34.2395 226.529 33.853 227.265 33.626C228 33.3991 228.981 33.2886 230.205 33.2886H230.799C232.022 33.2886 233 33.4052 233.739 33.6383C234.475 33.8622 235.008 34.2487 235.336 34.7946C235.664 35.3345 235.827 36.0706 235.827 37.0061V39.1869C235.827 40.1286 235.661 40.8739 235.336 41.4199C235.008 41.9597 234.475 42.3462 233.739 42.5762C233 42.8032 232.022 42.9136 230.799 42.9136H230.205V42.9197ZM230.205 41.4137H230.799C231.783 41.4137 232.525 41.3585 233.031 41.2481C233.537 41.1377 233.877 40.923 234.055 40.604C234.233 40.2758 234.322 39.7912 234.322 39.1501V37.0583C234.322 36.4019 234.23 35.9142 234.046 35.5921C233.862 35.2639 233.518 35.0492 233.013 34.948C232.507 34.8468 231.771 34.7946 230.799 34.7946H230.205C229.221 34.7946 228.476 34.8468 227.961 34.948C227.455 35.0492 227.115 35.267 226.937 35.5921C226.759 35.9142 226.67 36.4019 226.67 37.0583V39.1501C226.67 39.7912 226.759 40.2758 226.937 40.604C227.115 40.926 227.455 41.1407 227.961 41.2481C228.473 41.3585 229.221 41.4137 230.205 41.4137Z" fill="#FF9900"/>
<path d="M222.794 34.7946H217.478C217.116 34.7946 216.874 34.8591 216.752 34.9879C216.629 35.1167 216.568 35.3744 216.568 35.7578V42.1713C216.568 42.7664 216.319 43.0639 215.82 43.0639C215.32 43.0639 215.062 42.7664 215.062 42.1713V36.0123C215.062 35.0001 215.228 34.2947 215.565 33.8929C215.899 33.4911 216.491 33.2886 217.337 33.2886H222.794C223.416 33.2886 223.726 33.5371 223.726 34.037C223.726 34.537 223.416 34.7946 222.794 34.7946Z" fill="#FF9900"/>
<path d="M206.884 42.9197C205.661 42.9197 204.683 42.8062 203.944 42.5823C203.209 42.3554 202.672 41.975 202.338 41.4352C202.01 40.8892 201.848 40.1408 201.848 39.19V37.0092C201.848 36.0675 202.01 35.3253 202.338 34.7854C202.672 34.2395 203.209 33.853 203.944 33.626C204.683 33.3991 205.661 33.2886 206.884 33.2886H207.479C208.702 33.2886 209.68 33.4052 210.419 33.6383C211.155 33.8622 211.688 34.2487 212.016 34.7946C212.344 35.3345 212.506 36.0706 212.506 37.0061V39.1869C212.506 40.1286 212.344 40.8739 212.016 41.4199C211.688 41.9597 211.155 42.3462 210.419 42.5762C209.68 42.8032 208.702 42.9136 207.479 42.9136H206.884V42.9197ZM206.884 41.4137H207.479C208.463 41.4137 209.205 41.3585 209.711 41.2481C210.216 41.1377 210.557 40.923 210.735 40.604C210.912 40.2758 211.001 39.7912 211.001 39.1501V37.0583C211.001 36.4019 210.909 35.9142 210.725 35.5921C210.541 35.2639 210.195 35.0492 209.692 34.948C209.19 34.8468 208.451 34.7946 207.479 34.7946H206.884C205.9 34.7946 205.152 34.8468 204.64 34.948C204.135 35.0492 203.794 35.267 203.616 35.5921C203.439 35.9142 203.35 36.4019 203.35 37.0583V39.1501C203.35 39.7912 203.439 40.2758 203.616 40.604C203.794 40.926 204.135 41.1407 204.64 41.2481C205.152 41.3585 205.9 41.4137 206.884 41.4137Z" fill="#FF9900"/>
<path d="M189.99 43.0639C189.494 43.0639 189.242 42.7664 189.242 42.1713V34.0554C189.242 33.4481 189.478 33.1445 189.947 33.1445C190.481 33.1445 190.747 33.4481 190.747 34.0554V37.0675H197.731V34.0554C197.731 33.4481 197.979 33.1445 198.479 33.1445C198.978 33.1445 199.236 33.4481 199.236 34.0554V42.1713C199.236 42.7664 198.984 43.0639 198.479 43.0639C197.973 43.0639 197.731 42.7664 197.731 42.1713V38.5765H190.747V42.1713C190.747 42.7664 190.496 43.0639 189.99 43.0639Z" fill="#FF9900"/>
<path d="M181.527 42.9197C180.304 42.9197 179.326 42.8062 178.587 42.5823C177.848 42.3554 177.315 41.975 176.981 41.4352C176.653 40.8892 176.49 40.1408 176.49 39.19V37.0092C176.49 36.0675 176.653 35.3253 176.981 34.7854C177.315 34.2395 177.851 33.853 178.587 33.626C179.323 33.3991 180.304 33.2886 181.527 33.2886H184.436C184.976 33.2886 185.408 33.3837 185.736 33.5739C186.07 33.7579 186.312 34.0278 186.462 34.3836C186.613 34.7394 186.686 35.1658 186.686 35.6657C186.686 36.0215 186.622 36.2915 186.49 36.4755C186.367 36.6534 186.18 36.7423 185.926 36.7423C185.671 36.7423 185.484 36.6534 185.362 36.4755C185.239 36.2915 185.178 36.0583 185.178 35.7792C185.172 35.4296 185.11 35.1811 184.994 35.0308C184.884 34.8744 184.641 34.7946 184.267 34.7946H181.524C180.54 34.7946 179.795 34.8468 179.28 34.948C178.774 35.0492 178.434 35.267 178.256 35.5921C178.078 35.9142 177.989 36.4019 177.989 37.0583V39.1501C177.989 39.7912 178.078 40.2758 178.256 40.604C178.434 40.926 178.774 41.1407 179.28 41.2481C179.792 41.3585 180.54 41.4137 181.524 41.4137H184.267C184.651 41.4137 184.896 41.3432 185.003 41.199C185.113 41.0487 185.172 40.7972 185.178 40.4414C185.178 40.1408 185.242 39.9046 185.374 39.7359C185.503 39.558 185.684 39.4691 185.917 39.4691C186.15 39.4691 186.343 39.558 186.481 39.7359C186.619 39.9077 186.686 40.1776 186.686 40.5457C186.686 41.0579 186.606 41.4904 186.45 41.8462C186.3 42.202 186.058 42.4719 185.724 42.6559C185.389 42.8338 184.951 42.9228 184.411 42.9228H181.524L181.527 42.9197Z" fill="#FF9900"/>
<path d="M173.188 43.0638C173.011 43.0638 172.876 43.0086 172.778 42.8982C172.683 42.7878 172.615 42.5731 172.572 42.2541C172.538 41.932 172.52 41.4597 172.52 40.8309L172.725 41.3125C172.309 41.9014 171.787 42.3154 171.159 42.5608C170.531 42.8001 169.786 42.9197 168.927 42.9197H167.024C166.312 42.9197 165.733 42.6804 165.282 42.202C164.838 41.7173 164.617 40.9812 164.617 39.9997C164.617 39.331 164.728 38.782 164.945 38.3495C165.163 37.9109 165.488 37.5674 165.917 37.3159C166.352 37.0643 166.883 36.8864 167.505 36.7822C168.133 36.6717 168.851 36.6196 169.657 36.6196H173.127L172.453 37.2453V35.678C172.453 35.3375 172.391 35.1044 172.269 34.9817C172.152 34.859 171.91 34.7977 171.542 34.7977H168.654C167.998 34.7977 167.49 34.8253 167.128 34.8805C166.766 34.9296 166.509 35.0185 166.358 35.1473C166.208 35.27 166.128 35.4387 166.122 35.6504C166.101 35.9632 166.043 36.1963 165.948 36.3466C165.859 36.4969 165.666 36.5736 165.365 36.5736C164.869 36.5736 164.617 36.2423 164.617 35.5798C164.617 34.7946 164.942 34.218 165.589 33.8499C166.245 33.4818 167.217 33.2978 168.507 33.2978H171.68C172.526 33.2978 173.118 33.5002 173.452 33.902C173.786 34.3038 173.955 35.0124 173.955 36.0215V42.1805C173.955 42.7755 173.7 43.073 173.185 43.073L173.188 43.0638ZM167.076 41.475H168.93C170.206 41.475 171.116 41.1806 171.656 40.5947C172.195 40.0058 172.462 39.1041 172.456 37.8894L172.64 38.0643H169.66C168.808 38.0643 168.121 38.1133 167.6 38.2084C167.082 38.2974 166.705 38.4753 166.475 38.7421C166.242 39.009 166.125 39.4046 166.125 39.9322C166.125 40.4598 166.214 40.8248 166.392 41.0886C166.57 41.3493 166.8 41.4781 167.079 41.4781L167.076 41.475Z" fill="#FF9900"/>
<path d="M153.542 43.0639C153.318 43.0639 153.137 42.9841 152.999 42.8277C152.87 42.6713 152.803 42.4658 152.803 42.2142V33.9971C152.803 33.7303 152.87 33.5217 153.008 33.3714C153.152 33.2211 153.342 33.1445 153.581 33.1445C153.799 33.1445 153.974 33.2242 154.103 33.3806C154.24 33.5309 154.308 33.7364 154.308 33.9941V37.3343H156.346C156.518 37.3343 156.708 37.2208 156.92 36.9969C157.131 36.7638 157.404 36.3927 157.738 35.8804C157.999 35.4848 158.299 35.0737 158.639 34.6505C158.98 34.2272 159.424 33.8653 159.97 33.5647C160.509 33.2702 161.104 33.123 161.751 33.123C162.051 33.123 162.29 33.1874 162.468 33.3162C162.646 33.445 162.735 33.6321 162.735 33.8683C162.735 34.1352 162.646 34.3284 162.468 34.4511C162.29 34.5677 162.057 34.6259 161.772 34.6259C161.377 34.6321 161.009 34.7762 160.666 35.0553C160.332 35.3345 159.951 35.7823 159.528 36.3988C159.366 36.6442 159.219 36.8589 159.087 37.0429C158.958 37.2208 158.839 37.3772 158.728 37.5153C158.618 37.6502 158.508 37.779 158.391 37.8956C158.977 38.1471 159.476 38.4845 159.887 38.8986C160.304 39.3096 160.589 39.7329 160.749 40.1684C160.932 40.6254 161.104 40.972 161.26 41.2021C161.417 41.429 161.588 41.5425 161.772 41.5517C162.051 41.5517 162.281 41.6161 162.459 41.745C162.643 41.8738 162.735 42.0578 162.735 42.2971C162.735 42.8032 162.41 43.0547 161.763 43.0547C161.285 43.0547 160.88 42.9627 160.546 42.7786C160.212 42.5946 159.942 42.3369 159.737 42.0118C159.559 41.7511 159.406 41.4842 159.277 41.2113C159.148 40.9321 158.986 40.65 158.796 40.3708C158.606 40.0825 158.336 39.8065 157.986 39.5396C157.419 39.0673 156.503 38.8311 155.231 38.8311H154.308V42.2234C154.308 42.475 154.24 42.6774 154.103 42.8277C153.965 42.978 153.778 43.0547 153.538 43.0547L153.542 43.0639Z" fill="#FF9900"/>
<path d="M140.261 46.6495C139.771 46.6495 139.525 46.3366 139.525 45.7078V34.037C139.525 33.442 139.783 33.1445 140.295 33.1445C140.562 33.1445 140.749 33.2304 140.859 33.4021C140.969 33.5647 141.021 33.8499 141.021 34.2517V35.0615L140.755 34.7026C141.172 34.2119 141.699 33.853 142.343 33.626C142.983 33.4021 143.728 33.2886 144.574 33.2886H145.169C146.392 33.2886 147.367 33.4052 148.097 33.6383C148.832 33.8653 149.366 34.2487 149.694 34.7977C150.022 35.3375 150.184 36.0737 150.184 37.0092V39.19C150.184 40.1316 150.019 40.877 149.694 41.4229C149.366 41.9627 148.838 42.3492 148.106 42.5793C147.382 42.8062 146.417 42.9167 145.209 42.9167H141.031V45.7048C141.031 46.3335 140.776 46.6464 140.261 46.6464V46.6495ZM141.027 41.4137H145.206C146.174 41.4137 146.91 41.3585 147.407 41.2512C147.906 41.1407 148.241 40.926 148.409 40.607C148.587 40.2788 148.676 39.7942 148.676 39.1532V37.0644C148.676 36.408 148.584 35.9203 148.4 35.5983C148.222 35.2701 147.882 35.0554 147.376 34.9541C146.87 34.8529 146.135 34.8008 145.163 34.8008H144.568C143.366 34.8008 142.474 35.0738 141.895 35.6197C141.316 36.1596 141.024 36.9785 141.024 38.0796V41.4198L141.027 41.4137Z" fill="#FF9900"/>
<path d="M135.948 43.0638C135.77 43.0638 135.635 43.0086 135.537 42.8982C135.442 42.7878 135.375 42.5731 135.332 42.2541C135.298 41.932 135.28 41.4597 135.28 40.8309L135.485 41.3125C135.068 41.9014 134.547 42.3154 133.919 42.5608C133.29 42.8001 132.545 42.9197 131.687 42.9197H129.783C129.072 42.9197 128.493 42.6804 128.042 42.202C127.598 41.7173 127.377 40.9812 127.377 39.9997C127.377 39.331 127.487 38.782 127.705 38.3495C127.923 37.9109 128.248 37.5674 128.677 37.3159C129.112 37.0643 129.642 36.8864 130.265 36.7822C130.893 36.6717 131.61 36.6196 132.414 36.6196H135.884L135.209 37.2453V35.678C135.209 35.3375 135.148 35.1044 135.025 34.9817C134.909 34.859 134.667 34.7977 134.299 34.7977H131.411C130.755 34.7977 130.246 34.8253 129.885 34.8805C129.523 34.9296 129.268 35.0185 129.118 35.1473C128.968 35.27 128.888 35.4387 128.882 35.6504C128.861 35.9632 128.802 36.1963 128.707 36.3466C128.618 36.4969 128.425 36.5736 128.125 36.5736C127.625 36.5736 127.377 36.2423 127.377 35.5798C127.377 34.7946 127.702 34.218 128.349 33.8499C129.005 33.4818 129.976 33.2978 131.267 33.2978H134.443C135.289 33.2978 135.881 33.5002 136.215 33.902C136.549 34.3038 136.718 35.0124 136.718 36.0215V42.1805C136.718 42.7755 136.463 43.073 135.951 43.073L135.948 43.0638ZM129.835 41.475H131.69C132.965 41.475 133.876 41.1806 134.415 40.5947C134.955 40.0058 135.222 39.1041 135.215 37.8894L135.399 38.0643H132.42C131.567 38.0643 130.881 38.1133 130.363 38.2084C129.845 38.2974 129.468 38.4753 129.238 38.7421C129.005 39.009 128.888 39.4046 128.888 39.9322C128.888 40.4598 128.977 40.8248 129.155 41.0886C129.333 41.3493 129.563 41.4781 129.842 41.4781L129.835 41.475Z" fill="#FF9900"/>
<path d="M116.301 43.0639C116.078 43.0639 115.897 42.9841 115.759 42.8277C115.63 42.6713 115.562 42.4658 115.562 42.2142V33.9971C115.562 33.7303 115.63 33.5217 115.768 33.3714C115.912 33.2211 116.102 33.1445 116.341 33.1445C116.559 33.1445 116.734 33.2242 116.862 33.3806C117 33.5309 117.068 33.7364 117.068 33.9941V37.3343H119.106C119.278 37.3343 119.468 37.2208 119.679 36.9969C119.891 36.7638 120.164 36.3927 120.498 35.8804C120.759 35.4848 121.059 35.0737 121.399 34.6505C121.739 34.2272 122.184 33.8653 122.73 33.5647C123.269 33.2702 123.864 33.123 124.511 33.123C124.811 33.123 125.05 33.1874 125.228 33.3162C125.406 33.445 125.495 33.6321 125.495 33.8683C125.495 34.1352 125.406 34.3284 125.228 34.4511C125.05 34.5677 124.817 34.6259 124.532 34.6259C124.137 34.6321 123.769 34.7762 123.426 35.0553C123.091 35.3345 122.711 35.7823 122.288 36.3988C122.126 36.6442 121.979 36.8589 121.847 37.0429C121.718 37.2208 121.598 37.3772 121.488 37.5153C121.378 37.6502 121.267 37.779 121.151 37.8956C121.739 38.1471 122.236 38.4845 122.647 38.8986C123.064 39.3096 123.349 39.7329 123.508 40.1684C123.692 40.6254 123.864 40.972 124.02 41.2021C124.177 41.429 124.348 41.5425 124.532 41.5517C124.811 41.5517 125.041 41.6161 125.219 41.745C125.403 41.8738 125.495 42.0578 125.495 42.2971C125.495 42.8032 125.17 43.0547 124.523 43.0547C124.045 43.0547 123.64 42.9627 123.306 42.7786C122.972 42.5946 122.702 42.3369 122.497 42.0118C122.319 41.7511 122.166 41.4842 122.037 41.2113C121.908 40.9321 121.746 40.65 121.556 40.3708C121.365 40.0825 121.096 39.8065 120.746 39.5396C120.179 39.0673 119.263 38.8311 117.99 38.8311H117.068V42.2234C117.068 42.475 117 42.6774 116.862 42.8277C116.724 42.978 116.537 43.0547 116.298 43.0547L116.301 43.0639Z" fill="#FF9900"/>
<path d="M97.0228 46.6495C96.5323 46.6495 96.2871 46.3366 96.2871 45.7078V34.037C96.2871 33.442 96.5415 33.1445 97.0565 33.1445C97.3232 33.1445 97.5102 33.2304 97.6206 33.4021C97.731 33.5647 97.7861 33.8499 97.7861 34.2517V35.0615L97.5194 34.7026C97.9363 34.2119 98.4636 33.853 99.1074 33.626C99.7481 33.4021 100.493 33.2886 101.339 33.2886H101.934C103.157 33.2886 104.132 33.4052 104.861 33.6383C105.6 33.8653 106.13 34.2487 106.458 34.7977C106.786 35.3375 106.949 36.0737 106.949 37.0092V39.19C106.949 40.1316 106.783 40.877 106.458 41.4229C106.13 41.9627 105.603 42.3492 104.871 42.5793C104.147 42.8062 103.181 42.9167 101.974 42.9167H97.7953V45.7048C97.7953 46.3335 97.5409 46.6464 97.0259 46.6464L97.0228 46.6495ZM97.7892 41.4137H101.967C102.936 41.4137 103.672 41.3585 104.169 41.2512C104.668 41.1407 105.002 40.926 105.171 40.607C105.349 40.2788 105.438 39.7942 105.438 39.1532V37.0644C105.438 36.408 105.346 35.9203 105.162 35.5983C104.984 35.2701 104.644 35.0554 104.138 34.9541C103.632 34.8529 102.896 34.8008 101.928 34.8008H101.333C100.131 34.8008 99.2392 35.0738 98.6598 35.6197C98.0804 36.1596 97.7892 36.9785 97.7892 38.0796V41.4198V41.4137Z" fill="black"/>
<path d="M89.8595 43.0639C89.3139 43.0639 89.041 42.7878 89.041 42.2327V34.7946H86.0399C85.4391 34.7946 85.1387 34.5431 85.1387 34.037C85.1387 33.5309 85.4391 33.2886 86.0399 33.2886H93.6883C94.2831 33.2886 94.5804 33.5371 94.5804 34.037C94.5804 34.537 94.2831 34.7946 93.6883 34.7946H90.6995V42.2327C90.6995 42.4842 90.6259 42.6866 90.4726 42.8369C90.3224 42.9872 90.117 43.0639 89.8595 43.0639Z" fill="black"/>
<path d="M74.1738 43.0639C73.6741 43.0639 73.4258 42.7664 73.4258 42.1713V34.0554C73.4258 33.4481 73.6618 33.1445 74.1339 33.1445C74.6673 33.1445 74.934 33.4481 74.934 34.0554V37.0675H81.9172V34.0554C81.9172 33.4481 82.1655 33.1445 82.6652 33.1445C83.1649 33.1445 83.4224 33.4481 83.4224 34.0554V42.1713C83.4224 42.7664 83.171 43.0639 82.6652 43.0639C82.1594 43.0639 81.9172 42.7664 81.9172 42.1713V38.5765H74.934V42.1713C74.934 42.7664 74.6826 43.0639 74.1768 43.0639H74.1738Z" fill="black"/>
<path d="M65.2866 42.9197C64.0635 42.9197 63.0856 42.8062 62.3468 42.5823C61.6111 42.3554 61.0746 41.975 60.7405 41.4352C60.4125 40.8892 60.25 40.1408 60.25 39.19V37.0092C60.25 36.0675 60.4155 35.3253 60.7405 34.7854C61.0746 34.2395 61.6111 33.853 62.3468 33.626C63.0856 33.3991 64.0635 33.2886 65.2866 33.2886H65.8813C67.1045 33.2886 68.0824 33.4052 68.8211 33.6383C69.5569 33.8622 70.0903 34.2487 70.4183 34.7946C70.7463 35.3345 70.9087 36.0706 70.9087 37.0061V38.0214H61.7552V39.1501C61.7552 39.7912 61.8441 40.2758 62.0219 40.604C62.1997 40.926 62.5399 41.1407 63.0457 41.2481C63.5577 41.3585 64.3057 41.4137 65.2897 41.4137H68.3399C68.6955 41.4137 68.9346 41.3462 69.0572 41.2082C69.1859 41.0641 69.2503 40.8095 69.2503 40.4383C69.2503 40.1316 69.3178 39.8924 69.4557 39.7206C69.5937 39.5488 69.7776 39.463 70.0075 39.463C70.2466 39.4691 70.4305 39.5611 70.5593 39.739C70.688 39.9108 70.7555 40.1562 70.7555 40.4751C70.7555 40.9996 70.6788 41.4475 70.5286 41.8186C70.3784 42.1805 70.1362 42.4535 69.8021 42.6375C69.468 42.8216 69.0265 42.9136 68.4809 42.9136H65.2866V42.9197ZM61.7552 36.5154H69.3944C69.3392 35.8314 69.1093 35.3805 68.6985 35.1627C68.4533 35.0247 68.0916 34.9296 67.6133 34.8744C67.1412 34.8192 66.5649 34.7916 65.8813 34.7916H65.2866C64.5693 34.7916 63.9746 34.8192 63.5056 34.8744C63.0335 34.9296 62.6809 35.0216 62.4418 35.1504C62.0249 35.3682 61.7981 35.8222 61.7552 36.5123V36.5154Z" fill="black"/>
<path d="M57.5274 44.803C57.0308 44.803 56.7794 44.487 56.7794 43.8613V42.9197H48.291V30.89C48.291 30.2674 48.5393 29.9576 49.039 29.9576C49.5387 29.9576 49.7962 30.2674 49.7962 30.89V41.4137H55.593V30.89C55.593 30.2674 55.8413 29.9576 56.341 29.9576C56.8407 29.9576 57.0982 30.2674 57.0982 30.89V41.4229C57.4998 41.4443 57.7971 41.5732 57.9903 41.8124C58.1895 42.0517 58.2876 42.4075 58.2876 42.8767V43.8613C58.2876 44.4901 58.0362 44.803 57.5304 44.803H57.5274Z" fill="black"/>
<path d="M45.1055 47.999H237V72.9478H45.1055V47.999Z" fill="black"/>
<path d="M219.333 68.071C218.643 68.071 218.297 67.8409 218.297 67.3839C218.297 66.9269 218.594 66.7091 219.192 66.7091C219.643 66.7091 220.035 66.5312 220.372 66.1785C220.709 65.8227 220.973 65.3228 221.163 64.6756C221.292 64.2185 221.46 63.8167 221.669 63.4701C221.884 63.1174 222.153 62.7954 222.472 62.5101C221.556 62.3383 220.899 62.0101 220.504 61.5255C220.106 61.0409 219.909 60.3814 219.909 59.541C219.909 58.4859 220.09 57.6976 220.455 57.1701C220.826 56.6425 221.424 56.2898 222.242 56.1088C223.07 55.9278 224.18 55.8358 225.571 55.8358H229.458C229.667 55.8358 229.82 55.9125 229.924 56.0689C230.038 56.2162 230.093 56.437 230.093 56.7314V67.2551C230.093 67.5066 230.032 67.6999 229.912 67.8379C229.793 67.9759 229.624 68.0464 229.406 68.0464C229.189 68.0464 229.023 67.9759 228.9 67.8379C228.787 67.6999 228.732 67.5036 228.732 67.2551V62.7187H225.584C224.952 62.7187 224.434 62.7954 224.029 62.9518C223.634 63.099 223.312 63.3413 223.07 63.6787C222.828 64.0161 222.628 64.4639 222.475 65.0283C222.224 65.9086 221.801 66.6386 221.206 67.2183C220.617 67.7888 219.998 68.0741 219.342 68.0741L219.333 68.071ZM224.747 61.3568H228.723V57.1977H224.747C223.882 57.1977 223.196 57.2406 222.687 57.3265C222.178 57.4124 221.81 57.6025 221.586 57.897C221.372 58.1914 221.261 58.6485 221.261 59.2711C221.261 59.8938 221.369 60.3692 221.586 60.6698C221.81 60.9642 222.178 61.1544 222.687 61.2403C223.196 61.317 223.882 61.3568 224.747 61.3568Z" fill="white"/>
<path d="M215.223 68.0464C214.775 68.0464 214.548 67.7305 214.548 67.1017V57.7313L205.649 67.8655H204.199V56.5781C204.199 55.9646 204.423 55.6579 204.874 55.6579C205.324 55.6579 205.56 55.9677 205.56 56.5903V66.065L214.524 55.8389H215.909V67.1263C215.909 67.7397 215.68 68.0464 215.223 68.0464Z" fill="white"/>
<path d="M189.362 68.0464C188.911 68.0464 188.688 67.7489 188.688 67.1539V56.5781C188.688 55.9646 188.896 55.6579 189.31 55.6579C189.8 55.6579 190.049 55.9646 190.049 56.5781V60.817H199.04V56.5781C199.04 55.9646 199.263 55.6579 199.714 55.6579C200.165 55.6579 200.401 55.9646 200.401 56.5781V67.1539C200.401 67.7489 200.171 68.0464 199.714 68.0464C199.257 68.0464 199.04 67.7489 199.04 67.1539V62.1758H190.049V67.1539C190.049 67.7489 189.819 68.0464 189.362 68.0464Z" fill="white"/>
<path d="M178.848 67.8655C177.517 67.8655 176.435 67.7366 175.595 67.4759C174.758 67.2091 174.136 66.7398 173.731 66.0773C173.333 65.4117 173.137 64.4762 173.137 63.2646V60.4274C173.137 59.2251 173.336 58.2926 173.731 57.6271C174.136 56.9615 174.758 56.4983 175.595 56.2407C176.432 55.9738 177.517 55.8389 178.848 55.8389H179.599C180.92 55.8389 181.999 55.9738 182.836 56.2407C183.682 56.5014 184.304 56.9615 184.703 57.6271C185.101 58.2926 185.298 59.2251 185.298 60.4274V61.4764H174.495V63.2524C174.495 64.1695 174.62 64.8596 174.869 65.3258C175.12 65.792 175.558 66.1079 176.19 66.2705C176.831 66.4269 177.714 66.5036 178.845 66.5036H182.447C182.989 66.5036 183.363 66.3871 183.559 66.1539C183.768 65.9208 183.869 65.5374 183.869 65.0007C183.869 64.6817 183.933 64.4424 184.062 64.2891C184.2 64.1234 184.36 64.0437 184.54 64.0437C184.74 64.0437 184.902 64.1204 185.034 64.2768C185.163 64.4332 185.227 64.6541 185.227 64.9363C185.227 65.5068 185.157 66.0159 185.019 66.4668C184.881 66.9085 184.626 67.252 184.255 67.5035C183.884 67.7458 183.339 67.8655 182.621 67.8655H178.839H178.848ZM174.495 60.1146H183.924C183.906 59.0257 183.642 58.2773 183.133 57.8724C182.815 57.6056 182.361 57.4277 181.772 57.3418C181.193 57.2467 180.469 57.2007 179.596 57.2007H178.845C177.98 57.2007 177.266 57.2437 176.693 57.3295C176.123 57.4062 175.675 57.5626 175.347 57.7958C174.795 58.1945 174.51 58.9674 174.492 60.1146H174.495Z" fill="white"/>
<path d="M163.566 67.8655C162.235 67.8655 161.153 67.7366 160.313 67.4759C159.476 67.2091 158.854 66.7398 158.446 66.0773C158.048 65.4117 157.852 64.4762 157.852 63.2646V60.4274C157.852 59.2251 158.051 58.2926 158.446 57.6271C158.851 56.9615 159.473 56.4983 160.313 56.2407C161.15 55.9738 162.235 55.8389 163.566 55.8389H164.317C165.638 55.8389 166.717 55.9738 167.554 56.2407C168.4 56.5014 169.022 56.9615 169.421 57.6271C169.816 58.2926 170.015 59.2251 170.015 60.4274V63.2646C170.015 64.4731 169.816 65.4117 169.421 66.0773C169.022 66.7429 168.403 67.2091 167.554 67.4759C166.717 67.7366 165.638 67.8655 164.317 67.8655H163.566ZM163.566 66.5036H164.317C165.448 66.5036 166.328 66.4269 166.959 66.2705C167.591 66.1049 168.029 65.792 168.28 65.3258C168.532 64.8504 168.657 64.1603 168.657 63.2524V60.452C168.657 59.4919 168.523 58.7834 168.256 58.3264C167.989 57.8602 167.539 57.5565 166.907 57.4185C166.276 57.2713 165.414 57.1976 164.317 57.1976H163.566C162.453 57.1976 161.576 57.2713 160.935 57.4185C160.304 57.5565 159.859 57.8602 159.602 58.3264C159.341 58.7926 159.213 59.5011 159.213 60.452V63.2524C159.213 64.1695 159.338 64.8596 159.59 65.3258C159.841 65.792 160.279 66.1079 160.911 66.2705C161.549 66.4269 162.434 66.5036 163.566 66.5036Z" fill="white"/>
<path d="M143.218 72.5829C142.776 72.5829 142.559 72.2761 142.559 71.6627V56.5505C142.559 55.9554 142.789 55.6548 143.245 55.6548C143.478 55.6548 143.647 55.7315 143.751 55.888C143.864 56.0444 143.92 56.2928 143.92 56.6394V58.1546L143.687 57.8448C144.18 57.1639 144.809 56.6578 145.578 56.3296C146.348 56.0014 147.249 55.8389 148.285 55.8389H149.036C150.357 55.8389 151.436 55.9738 152.273 56.2407C153.11 56.5014 153.729 56.9615 154.125 57.6271C154.523 58.2927 154.719 59.2251 154.719 60.4275V63.2646C154.719 64.4731 154.52 65.4117 154.125 66.0773C153.726 66.7429 153.11 67.2091 152.273 67.4759C151.436 67.7367 150.36 67.8655 149.048 67.8655H143.92V71.6627C143.92 72.2761 143.687 72.5829 143.221 72.5829H143.218ZM143.917 66.5036H149.045C150.176 66.5036 151.053 66.4269 151.675 66.2705C152.298 66.1049 152.733 65.792 152.984 65.3258C153.236 64.8504 153.358 64.1603 153.358 63.2524V60.452C153.358 59.4919 153.223 58.7834 152.957 58.3264C152.69 57.8602 152.239 57.5565 151.611 57.4185C150.98 57.2713 150.121 57.1977 149.033 57.1977H148.282C146.847 57.1977 145.759 57.5903 145.017 58.3785C144.281 59.1638 143.917 60.3109 143.917 61.8138V66.5067V66.5036Z" fill="white"/>
<path d="M134.782 68.0464C134.306 68.0464 134.07 67.7735 134.07 67.2306V57.1977H130.131C129.552 57.1977 129.264 56.9676 129.264 56.5106C129.264 56.0536 129.552 55.8358 130.131 55.8358H139.42C139.99 55.8358 140.275 56.0597 140.275 56.5106C140.275 56.9615 139.99 57.1977 139.42 57.1977H135.496V67.2306C135.496 67.4913 135.431 67.6876 135.303 67.8256C135.183 67.9728 135.008 68.0464 134.785 68.0464H134.782Z" fill="white"/>
<path d="M121.163 67.8655C119.833 67.8655 118.751 67.7366 117.911 67.4759C117.074 67.2091 116.452 66.7398 116.044 66.0773C115.645 65.4117 115.449 64.4762 115.449 63.2646V60.4274C115.449 59.2251 115.648 58.2926 116.044 57.6271C116.449 56.9615 117.071 56.4983 117.911 56.2407C118.748 55.9738 119.833 55.8389 121.163 55.8389H124.894C125.578 55.8389 126.099 55.9677 126.461 56.2284C126.822 56.4799 127.074 56.8081 127.212 57.213C127.35 57.6179 127.42 58.0473 127.42 58.4951C127.42 58.9092 127.365 59.2067 127.251 59.3876C127.147 59.5686 126.976 59.6606 126.733 59.6606C126.467 59.6606 126.286 59.5563 126.188 59.3508C126.102 59.1423 126.059 58.9276 126.059 58.7037C126.05 58.2558 125.964 57.8908 125.798 57.6148C125.642 57.3387 125.256 57.2007 124.633 57.2007H121.163C120.051 57.2007 119.174 57.2743 118.533 57.4216C117.902 57.5596 117.457 57.8632 117.2 58.3295C116.939 58.7957 116.81 59.5042 116.81 60.455V63.2554C116.81 64.1725 116.936 64.8626 117.187 65.3289C117.439 65.7951 117.877 66.111 118.509 66.2736C119.146 66.43 120.032 66.5067 121.163 66.5067H124.633C125.265 66.5067 125.651 66.3779 125.798 66.1171C125.945 65.8564 126.031 65.4853 126.059 65.0037C126.077 64.6571 126.145 64.4118 126.267 64.2645C126.387 64.1173 126.549 64.0437 126.746 64.0437C126.969 64.0437 127.138 64.1296 127.251 64.3013C127.365 64.4731 127.42 64.7676 127.42 65.1816C127.42 65.6908 127.343 66.1478 127.187 66.5558C127.04 66.9606 126.776 67.2827 126.396 67.5158C126.016 67.7489 125.489 67.8655 124.817 67.8655H121.163Z" fill="white"/>
<path d="M105.883 67.8655C104.552 67.8655 103.47 67.7366 102.63 67.4759C101.794 67.2091 101.171 66.7398 100.767 66.0773C100.368 65.4117 100.172 64.4762 100.172 63.2646V60.4274C100.172 59.2251 100.371 58.2926 100.767 57.6271C101.171 56.9615 101.794 56.4983 102.63 56.2407C103.467 55.9738 104.552 55.8389 105.883 55.8389H106.634C107.955 55.8389 109.034 55.9738 109.871 56.2407C110.717 56.5014 111.339 56.9615 111.735 57.6271C112.133 58.2926 112.33 59.2251 112.33 60.4274V63.2646C112.33 64.4731 112.13 65.4117 111.735 66.0773C111.336 66.7429 110.717 67.2091 109.871 67.4759C109.034 67.7366 107.955 67.8655 106.634 67.8655H105.883ZM105.883 66.5036H106.634C107.765 66.5036 108.645 66.4269 109.276 66.2705C109.908 66.1049 110.346 65.792 110.598 65.3258C110.849 64.8504 110.975 64.1603 110.975 63.2524V60.452C110.975 59.4919 110.84 58.7834 110.573 58.3264C110.306 57.8602 109.856 57.5565 109.227 57.4185C108.596 57.2713 107.734 57.1976 106.637 57.1976H105.886C104.773 57.1976 103.896 57.2713 103.256 57.4185C102.624 57.5565 102.18 57.8602 101.922 58.3264C101.662 58.7926 101.533 59.5011 101.533 60.452V63.2524C101.533 64.1695 101.659 64.8596 101.91 65.3258C102.161 65.792 102.6 66.1079 103.231 66.2705C103.869 66.4269 104.755 66.5036 105.886 66.5036H105.883Z" fill="white"/>
<path d="M84.8775 68.0464C84.43 68.0464 84.2031 67.7489 84.2031 67.1539V56.5781C84.2031 55.9646 84.4116 55.6579 84.8254 55.6579C85.1289 55.6579 85.3925 55.8235 85.6163 56.1517L90.4475 63.3566L95.3064 56.1517C95.521 55.8235 95.7723 55.6579 96.0574 55.6579C96.4989 55.6579 96.7165 55.9646 96.7165 56.5781V67.1539C96.7165 67.7489 96.4866 68.0464 96.0298 68.0464C95.5731 68.0464 95.3554 67.7397 95.3554 67.1263V58.262L90.8982 64.9639C90.8123 65.1019 90.6683 65.1724 90.4721 65.1724C90.3862 65.1724 90.3004 65.154 90.2115 65.1203C90.1257 65.0865 90.0552 65.0344 90.0031 64.9639L85.5611 58.262V67.1263C85.5611 67.7397 85.3312 68.0464 84.8745 68.0464H84.8775Z" fill="white"/>
<path d="M74.3117 67.8655C72.9813 67.8655 71.8992 67.7366 71.0593 67.4759C70.2224 67.2091 69.6001 66.7398 69.1924 66.0773C68.7938 65.4117 68.5977 64.4762 68.5977 63.2646V60.4274C68.5977 59.2251 68.7969 58.2926 69.1924 57.6271C69.597 56.9615 70.2193 56.4983 71.0593 56.2407C71.8961 55.9738 72.9813 55.8389 74.3117 55.8389H75.0628C76.384 55.8389 77.4631 55.9738 78.3 56.2407C79.146 56.5014 79.7683 56.9615 80.1638 57.6271C80.5623 58.2926 80.7585 59.2251 80.7585 60.4274V63.2646C80.7585 64.4731 80.5592 65.4117 80.1638 66.0773C79.7653 66.7429 79.146 67.2091 78.3 67.4759C77.4631 67.7366 76.384 67.8655 75.0628 67.8655H74.3117ZM74.3117 66.5036H75.0628C76.194 66.5036 77.0738 66.4269 77.7053 66.2705C78.3368 66.1049 78.7751 65.792 79.0265 65.3258C79.2779 64.8504 79.4035 64.1603 79.4035 63.2524V60.452C79.4035 59.4919 79.2687 58.7834 79.002 58.3264C78.7353 57.8602 78.2846 57.5565 77.6562 57.4185C77.0247 57.2713 76.1633 57.1976 75.0659 57.1976H74.3148C73.202 57.1976 72.3253 57.2713 71.6846 57.4185C71.0531 57.5565 70.6086 57.8602 70.3511 58.3264C70.0906 58.7926 69.9618 59.5011 69.9618 60.452V63.2524C69.9618 64.1695 70.0875 64.8596 70.3389 65.3258C70.5902 65.792 71.0286 66.1079 71.6601 66.2705C72.2977 66.4269 73.1836 66.5036 74.3148 66.5036H74.3117Z" fill="white"/>
<path d="M53.6828 70.2487C53.226 70.2487 52.9961 69.942 52.9961 69.3285V68.0188C52.9961 67.0005 53.4529 66.4944 54.3694 66.5036H55.1603L54.3817 66.8287C56.2394 63.8566 57.1682 60.1943 57.1682 55.8389H63.9828V66.5067H65.0956C65.9754 66.5067 66.4169 67.0128 66.4169 68.0219V69.3316C66.4169 69.945 66.1931 70.2518 65.7424 70.2518C65.2918 70.2518 65.0558 69.945 65.0558 69.3316V67.8685H54.3572V69.3316C54.3572 69.945 54.1334 70.2518 53.6828 70.2518V70.2487ZM56.0892 66.5036H62.6064V57.1976H58.5508C58.5232 60.6115 57.7047 63.7124 56.0892 66.5036Z" fill="white"/>
<path d="M0 26.2279L31.1302 0V33.7395L26.0568 36.5V73H0V26.2279Z" fill="#FF9900"/>
<path fill-rule="evenodd" clip-rule="evenodd" d="M44.4396 0L13.3125 26.2279V73H26.4175V45.0361L31.0771 41.1162V34.1198H35.7366V37.1963L44.4427 29.8717V0H44.4396Z" fill="black"/>
</g>
<defs>
<clipPath id="clip0_1052_6734">
<rect width="237" height="73" fill="white"/>
</clipPath>
</defs>
</svg>
