<svg width="20" height="26" viewBox="0 0 20 26" fill="none" xmlns="http://www.w3.org/2000/svg">
<path d="M18.2929 6.29289C18.6834 5.90237 19.3166 5.90237 19.7071 6.29289C20.0976 6.68342 20.0976 7.31658 19.7071 7.70711L11.4142 16L19.7071 24.2929C20.0976 24.6834 20.0976 25.3166 19.7071 25.7071C19.3166 26.0976 18.6834 26.0976 18.2929 25.7071L10 17.4142L1.70711 25.7071C1.31658 26.0976 0.683419 26.0976 0.292893 25.7071C-0.097631 25.3166 -0.097631 24.6834 0.292893 24.2929L8.58579 16L0.292894 7.70711C-0.0976306 7.31658 -0.0976306 6.68342 0.292894 6.29289C0.683418 5.90237 1.31658 5.90237 1.70711 6.29289L10 14.5858L18.2929 6.29289Z" fill="#B2B8BF"/>
</svg>
