<svg width="120" height="121" viewBox="0 0 120 121" fill="none" xmlns="http://www.w3.org/2000/svg">
<path fill-rule="evenodd" clip-rule="evenodd" d="M12 15.1211C13.6569 15.1211 15 13.7779 15 12.1211C15 10.4642 13.6569 9.12109 12 9.12109C10.3431 9.12109 9 10.4642 9 12.1211C9 13.7779 10.3431 15.1211 12 15.1211ZM12 16.1211C14.2091 16.1211 16 14.3302 16 12.1211C16 9.91195 14.2091 8.12109 12 8.12109C9.79086 8.12109 8 9.91195 8 12.1211C8 14.3302 9.79086 16.1211 12 16.1211ZM60.5 10.1211H61V10.1236C67.4616 10.1875 73.8526 11.4911 79.8255 13.9652C85.9525 16.503 91.5195 20.2228 96.2089 24.9122C100.898 29.6016 104.618 35.1686 107.156 41.2956C109.63 47.2685 110.934 53.6595 110.998 60.1211H111V60.6211V61.1211H110.998C110.934 67.5827 109.63 73.9737 107.156 79.9466C104.618 86.0735 100.898 91.6406 96.2089 96.33C91.5195 101.019 85.9525 104.739 79.8255 107.277C73.8526 109.751 67.4616 111.055 61 111.119V111.121H60.5H60V111.119C53.5384 111.055 47.1474 109.751 41.1745 107.277C35.0475 104.739 29.4805 101.019 24.7911 96.33C20.1018 91.6406 16.3819 86.0735 13.8441 79.9466C11.37 73.9737 10.0665 67.5827 10.0025 61.1211H10V60.6211V60.1211H10.0025C10.0665 53.6595 11.37 47.2685 13.8441 41.2956C16.3819 35.1686 20.1018 29.6016 24.7911 24.9122C29.4805 20.2228 35.0475 16.503 41.1745 13.9652C47.1474 11.4911 53.5384 10.1875 60 10.1236V10.1211H60.5ZM11.0025 60.1211H20.0031C20.0666 54.9727 21.1114 49.8821 23.0829 45.1224L24.0068 45.5051C22.0855 50.1434 21.0667 55.1041 21.0032 60.1211H30.0041C30.067 56.286 30.8527 52.4956 32.3217 48.9492C33.8544 45.2488 36.1011 41.8865 38.9332 39.0543C41.7654 36.2221 45.1277 33.9755 48.8282 32.4428C52.3745 30.9738 56.1649 30.1881 60 30.1252L60 21.1243C54.983 21.1878 50.0223 22.2066 45.384 24.1279L45.0013 23.204C49.761 21.2325 54.8516 20.1877 60 20.1242V11.1236C53.6697 11.1876 47.4088 12.4652 41.5572 14.8891C35.5516 17.3767 30.0947 21.0228 25.4982 25.6193C20.9017 30.2158 17.2556 35.6726 14.768 41.6783C12.3442 47.5299 11.0665 53.7908 11.0025 60.1211ZM31.0042 60.1211H39.9864C40.0479 57.5968 40.5748 55.104 41.5422 52.7685C42.5734 50.279 44.0849 48.0169 45.9903 46.1114C47.8958 44.206 50.1579 42.6945 52.6474 41.6633C54.9829 40.6959 57.4757 40.169 60 40.1074V31.1253C56.2963 31.1881 52.6359 31.9479 49.2108 33.3666C45.6317 34.8492 42.3797 37.0221 39.6404 39.7614C36.901 42.5008 34.7281 45.7528 33.2456 49.3319C31.8268 52.757 31.067 56.4174 31.0042 60.1211ZM39.9864 61.1211H31.0042C31.067 64.8248 31.8268 68.4852 33.2456 71.9103L32.3217 72.2929C30.8527 68.7466 30.067 64.9562 30.0041 61.1211H21.0032C21.0667 66.1381 22.0855 71.0988 24.0068 75.7371C25.9918 80.5294 28.9014 84.8839 32.5693 88.5518C36.2372 92.2197 40.5916 95.1293 45.384 97.1143C50.0223 99.0356 54.983 100.054 60 100.118L60 91.117C56.1649 91.0541 52.3745 90.2684 48.8282 88.7994L49.2108 87.8755C52.6359 89.2942 56.2963 90.0541 60 90.1169V81.1348C57.4757 81.0732 54.9829 80.5463 52.6474 79.5789C50.1579 78.5477 47.8958 77.0362 45.9903 75.1307C44.0849 73.2253 42.5734 70.9632 41.5422 68.4737C40.5748 66.1382 40.0479 63.6454 39.9864 61.1211ZM60.5 80.1408C57.9366 80.1408 55.3984 79.6359 53.0301 78.655C50.6619 77.674 48.51 76.2362 46.6975 74.4236C44.8849 72.6111 43.4471 70.4592 42.4661 68.091C41.4851 65.7227 40.9803 63.1845 40.9803 60.6211C40.9803 58.0577 41.4851 55.5195 42.4661 53.1512C43.4471 50.783 44.8849 48.6311 46.6975 46.8186C48.51 45.006 50.6619 43.5682 53.0301 42.5872C55.3984 41.6062 57.9366 41.1013 60.5 41.1013C63.0634 41.1013 65.6016 41.6062 67.9699 42.5872C70.3381 43.5682 72.49 45.006 74.3026 46.8186C76.1151 48.6311 77.5529 50.783 78.5339 53.1512C79.5149 55.5195 80.0198 58.0577 80.0198 60.6211C80.0198 63.1845 79.5149 65.7227 78.5339 68.091C77.5529 70.4592 76.1151 72.6111 74.3026 74.4236C72.49 76.2362 70.3381 77.674 67.9699 78.655C65.6016 79.6359 63.0634 80.1408 60.5 80.1408ZM60 101.118C54.8516 101.054 49.761 100.01 45.0013 98.0382C40.0876 96.0029 35.6229 93.0197 31.8622 89.2589C28.1014 85.4981 25.1182 81.0335 23.0829 76.1198C21.1114 71.3601 20.0666 66.2695 20.0031 61.1211H11.0025C11.0665 67.4514 12.3442 73.7123 14.768 79.5639C17.2556 85.5695 20.9017 91.0264 25.4982 95.6229C30.0947 100.219 35.5516 103.866 41.5572 106.353C47.4088 108.777 53.6697 110.055 60 110.119V101.118ZM61 110.119C67.3303 110.055 73.5912 108.777 79.4428 106.353C85.4485 103.866 90.9053 100.219 95.5018 95.6229C100.098 91.0264 103.744 85.5695 106.232 79.5639C108.656 73.7123 109.934 67.4514 109.997 61.1211H100.997C100.933 66.2695 99.8886 71.3601 97.9171 76.1198L96.9933 75.7371C98.9145 71.0988 99.9333 66.1381 99.9968 61.1211H90.9959C90.933 64.9562 90.1473 68.7466 88.6783 72.2929C87.1456 75.9934 84.8989 79.3557 82.0668 82.1879C79.2346 85.02 75.8723 87.2666 72.1719 88.7994C68.6255 90.2684 64.8351 91.0541 61 91.117L61 100.118C66.017 100.054 70.9777 99.0356 75.616 97.1143L75.9987 98.0382C71.239 100.01 66.1484 101.054 61 101.118V110.119ZM61 90.1169C64.7037 90.0541 68.3641 89.2942 71.7892 87.8755C75.3683 86.393 78.6203 84.2201 81.3597 81.4807C84.099 78.7414 86.2719 75.4894 87.7545 71.9103C89.1732 68.4852 89.933 64.8248 89.9958 61.1211H81.0137C80.9521 63.6454 80.4252 66.1382 79.4578 68.4737C78.4266 70.9632 76.9151 73.2253 75.0097 75.1307C73.1042 77.0362 70.8421 78.5477 68.3526 79.5789C66.0171 80.5463 63.5243 81.0732 61 81.1348V90.1169ZM106.232 41.6783C108.656 47.5299 109.934 53.7908 109.997 60.1211H100.997C100.933 54.9727 99.8886 49.8821 97.9171 45.1224C95.8818 40.2087 92.8986 35.744 89.1378 31.9833C85.3771 28.2225 80.9124 25.2393 75.9987 23.204C71.239 21.2325 66.1484 20.1877 61 20.1242V11.1236C67.3303 11.1876 73.5912 12.4652 79.4428 14.8891C85.4485 17.3767 90.9053 21.0228 95.5018 25.6193C100.098 30.2158 103.744 35.6726 106.232 41.6783ZM96.9933 45.5051C98.9145 50.1434 99.9333 55.1041 99.9968 60.1211H90.9959C90.933 56.286 90.1473 52.4956 88.6783 48.9492L87.7545 49.3319C89.1732 52.757 89.933 56.4174 89.9958 60.1211H81.0137C80.9521 57.5968 80.4252 55.104 79.4578 52.7685C78.4266 50.279 76.9151 48.0169 75.0097 46.1114C73.1042 44.206 70.8421 42.6945 68.3526 41.6633C66.0171 40.6959 63.5243 40.169 61 40.1074V31.1253C64.7037 31.1881 68.3641 31.9479 71.7892 33.3666L72.1719 32.4428C68.6255 30.9738 64.8351 30.1881 61 30.1252L61 21.1243C66.017 21.1878 70.9777 22.2066 75.616 24.1279C80.4084 26.1129 84.7628 29.0225 88.4307 32.6904C92.0986 36.3583 95.0082 40.7127 96.9933 45.5051ZM60.5 74.1211C67.9558 74.1211 74 68.0769 74 60.6211C74 53.1652 67.9558 47.1211 60.5 47.1211C53.0442 47.1211 47 53.1652 47 60.6211C47 68.0769 53.0442 74.1211 60.5 74.1211ZM60.5 75.1211C68.5081 75.1211 75 68.6292 75 60.6211C75 52.613 68.5081 46.1211 60.5 46.1211C52.4919 46.1211 46 52.613 46 60.6211C46 68.6292 52.4919 75.1211 60.5 75.1211ZM15 108.121C15 109.778 13.6569 111.121 12 111.121C10.3431 111.121 9 109.778 9 108.121C9 106.464 10.3431 105.121 12 105.121C13.6569 105.121 15 106.464 15 108.121ZM16 108.121C16 110.33 14.2091 112.121 12 112.121C9.79086 112.121 8 110.33 8 108.121C8 105.912 9.79086 104.121 12 104.121C14.2091 104.121 16 105.912 16 108.121ZM108 15.1211C109.657 15.1211 111 13.7779 111 12.1211C111 10.4642 109.657 9.12109 108 9.12109C106.343 9.12109 105 10.4642 105 12.1211C105 13.7779 106.343 15.1211 108 15.1211ZM108 16.1211C110.209 16.1211 112 14.3302 112 12.1211C112 9.91195 110.209 8.12109 108 8.12109C105.791 8.12109 104 9.91195 104 12.1211C104 14.3302 105.791 16.1211 108 16.1211ZM111 108.121C111 109.778 109.657 111.121 108 111.121C106.343 111.121 105 109.778 105 108.121C105 106.464 106.343 105.121 108 105.121C109.657 105.121 111 106.464 111 108.121ZM112 108.121C112 110.33 110.209 112.121 108 112.121C105.791 112.121 104 110.33 104 108.121C104 105.912 105.791 104.121 108 104.121C110.209 104.121 112 105.912 112 108.121Z" fill="#FF9900"/>
</svg>
