<svg width="120" height="120" viewBox="0 0 120 120" fill="none" xmlns="http://www.w3.org/2000/svg">
<path fill-rule="evenodd" clip-rule="evenodd" d="M23 95V31.5C23 28.4624 20.5376 26 17.5 26C14.4624 26 12 28.4624 12 31.5V95H23ZM17.5 25C13.9101 25 11 27.9101 11 31.5V95V96H12H23H24V95V31.5C24 27.9101 21.0899 25 17.5 25ZM44 95V31.5C44 28.4624 41.5376 26 38.5 26C35.4624 26 33 28.4624 33 31.5V95H44ZM38.5 25C34.9101 25 32 27.9101 32 31.5V95V96H33H44H45V95V31.5C45 27.9101 42.0899 25 38.5 25ZM65 31.5V95H54V31.5C54 28.4624 56.4624 26 59.5 26C62.5376 26 65 28.4624 65 31.5ZM53 31.5C53 27.9101 55.9101 25 59.5 25C63.0899 25 66 27.9101 66 31.5V95V96H65H54H53V95V31.5ZM86 95V31.5C86 28.4624 83.5376 26 80.5 26C77.4624 26 75 28.4624 75 31.5V95H86ZM80.5 25C76.9101 25 74 27.9101 74 31.5V95V96H75H86H87V95V31.5C87 27.9101 84.0899 25 80.5 25ZM107 31.5V95H96V31.5C96 28.4624 98.4624 26 101.5 26C104.538 26 107 28.4624 107 31.5ZM95 31.5C95 27.9101 97.9101 25 101.5 25C105.09 25 108 27.9101 108 31.5V95V96H107H96H95V95V31.5ZM31 45.5H25V44.5H31V45.5ZM46 45.5H52V44.5H46V45.5ZM73 45.5H67V44.5H73V45.5ZM88 45.5H94V44.5H88V45.5ZM31 76.5H25V75.5H31V76.5ZM46 76.5H52V75.5H46V76.5ZM73 76.5H67V75.5H73V76.5ZM88 76.5H94V75.5H88V76.5ZM31 72.5H25V71.5H31V72.5ZM46 72.5H52V71.5H46V72.5ZM73 72.5H67V71.5H73V72.5ZM88 72.5H94V71.5H88V72.5ZM31 49.5H25V48.5H31V49.5ZM46 49.5H52V48.5H46V49.5ZM73 49.5H67V48.5H73V49.5ZM88 49.5H94V48.5H88V49.5Z" fill="#FF9900"/>
</svg>
