<svg width="120" height="120" viewBox="0 0 120 120" fill="none" xmlns="http://www.w3.org/2000/svg">
<path d="M28 76.25H5V97H41C45.4183 97 49 93.4183 49 89V76.25M28 76.25H49M28 76.25V71M81 76.25V62C81 57.5817 77.4183 54 73 54H65M81 76.25H103M81 76.25L79.1281 78.9994C78.2241 80.3271 79.175 82.125 80.7813 82.125H103.219C104.825 82.125 105.776 80.3271 104.872 78.9994L103 76.25M103 76.25V59C103 45.7452 92.2548 35 79 35H77M65 54V35M65 54H59.5M65 35H59.5M65 35H77M65 35V28C65 26.3431 66.3431 25 68 25H71M59.5 35H40C33.3726 35 28 40.3726 28 47V71M59.5 35V54M59.5 54H57C52.5817 54 49 57.5817 49 62V71M49 76.25V71M49 71H28M77 35V28C77 26.3431 75.6569 25 74 25H71M71 25V20.5M71 20.5L75.8276 15.431C77.6953 13.47 81 14.7919 81 17.5V17.5C81 19.1569 79.6569 20.5 78 20.5H71ZM71 20.5L66.5855 15.6208C64.7925 13.639 61.5 14.9074 61.5 17.5799V17.5799C61.5 19.1926 62.8074 20.5 64.4201 20.5H71Z" stroke="#FF9900"/>
<path d="M85.2454 99.6745L92.1081 88L99.2481 99.507C102.629 104.956 98.7104 112 92.2974 112C85.9718 112 82.0398 105.128 85.2454 99.6745Z" stroke="#FF9900"/>
</svg>
