<svg width="120" height="120" viewBox="0 0 120 120" fill="none" xmlns="http://www.w3.org/2000/svg">
<path fill-rule="evenodd" clip-rule="evenodd" d="M30 38.412C30 21.6159 43.6159 8 60.412 8C77.2081 8 90.8239 21.6159 90.8239 38.412V48.9823C90.8239 61.826 81.9531 72.9675 69.4359 75.845L69.6599 76.8196C82.6313 73.8377 91.8239 62.292 91.8239 48.9823V38.412C91.8239 21.0636 77.7603 7 60.412 7C43.0636 7 29 21.0636 29 38.412V48.2498C29 61.9675 38.5275 73.8446 51.9185 76.8204L52.1354 75.8442C39.202 72.9701 30 61.4988 30 48.2498V38.412ZM43.0162 87.0946H77.5575V86.0946H43.0162V87.0946ZM43.0162 94.6035H77.5575V93.6035H43.0162V94.6035ZM52.027 105.116H69.5479V104.116H52.027V105.116ZM52.027 112.124H69.5479V111.124H52.027V112.124ZM65.761 30.8526L65.3212 29.6798L64.8324 30.8331L58.9369 44.7467L54.4454 38.0095L54.1455 37.5597L53.7204 37.8937L50.2163 40.647L50.8341 41.4333L53.9132 39.014L58.6193 46.0732L59.1338 46.845L59.4957 45.9909L65.2645 32.3766L68.5791 41.2157L69.5155 40.8646L65.761 30.8526ZM57.2662 76.2051L47.2542 38.1596L46.2871 38.4141L56.2991 76.4596L57.2662 76.2051ZM65.7845 76.423L72.7929 38.3775L71.8095 38.1963L64.8011 76.2418L65.7845 76.423ZM94.3478 31.8592L109.848 16.8592L109.152 16.1406L93.6524 31.1406L94.3478 31.8592ZM94.5001 44.4999H108.5V43.4999H94.5001V44.4999ZM94.17 57.8755L110.67 72.3755L111.33 71.6243L94.8301 57.1243L94.17 57.8755ZM9.48235 16.7186L24.9823 31.7186L25.6778 31L10.1778 16L9.48235 16.7186ZM10.8301 44.3593H24.8301V43.3593H10.8301V44.3593ZM8.66011 72.2349L25.1601 57.7349L24.5 56.9837L8 71.4837L8.66011 72.2349Z" fill="#FF9900"/>
</svg>
