<svg width="120" height="120" viewBox="0 0 120 120" fill="none" xmlns="http://www.w3.org/2000/svg">
<path fill-rule="evenodd" clip-rule="evenodd" d="M28.1611 12L28.6322 12.1675L104.204 39.0449L104.874 39.2831L104.421 39.8319L95.0766 51.1492L95.0644 65.7856L95.0639 66.4954L94.3942 66.2572L67.1501 56.5678C66.668 61.3095 62.0319 64.5416 57.3761 63.2804L55.5784 62.7934L55.2626 65.9042C53.7422 80.8798 41.5116 92.4821 26.527 93.2808C26.2806 97.1181 23.0902 100.154 19.1907 100.154H18.5152V107.502V108.002H18.0152H13.5H13V107.502V74.1162V73.6162H13.5H18.0152H18.5152V74.1162V81.4644H19.6267C23.266 81.4644 26.2488 84.2756 26.5219 87.8449C38.5212 86.8762 48.2004 77.5501 49.5731 65.5425L50.0827 61.0847L49.4345 60.8652C43.7404 58.9375 40.2302 53.2327 41.0639 47.2902L18.822 39.3798L18.3509 39.2123L18.5204 38.7419L27.9915 12.4704L28.1611 12ZM94.4142 50.383L103.196 39.7475L28.7641 13.2758L24.3677 25.4709L94.4142 50.383ZM24.0286 26.4116L19.6322 38.6067L94.0637 65.0783L94.0751 51.3237L24.0286 26.4116ZM51.0533 61.3988L50.5666 65.6561C49.1373 78.1592 39.0446 87.8658 26.5423 88.8465V92.2785C41.0051 91.4742 52.7996 80.264 54.2677 65.8032L54.6019 62.5118L51.0533 61.3988ZM55.2807 61.6767L57.6375 62.3151C61.6778 63.4097 65.7011 60.6212 66.1498 56.5176L42.0084 47.7981C41.4337 53.1308 44.6346 58.1845 49.7552 59.9181L50.7803 60.2651L55.2807 61.6767ZM18.5152 82.4644V91.8059V99.1542H19.1907C22.6986 99.1542 25.5423 96.3104 25.5423 92.8025V88.3801C25.5423 85.1129 22.8938 82.4644 19.6267 82.4644H18.5152ZM14 74.6162V107.002H17.5152V99.6542V91.8059V81.9644V74.6162H14ZM103.688 45.373L103.51 44.3172L102.813 45.1346L97.2735 51.6329L97.1495 51.7784L97.1539 51.969L97.4799 65.8463L97.4931 66.4086L98.0515 66.327L106.489 65.0936L106.997 65.0194L106.912 64.5153L103.688 45.373ZM98.1595 52.1328L102.879 46.5975L105.84 64.1798L98.4678 65.2573L98.1595 52.1328Z" fill="#FF9900"/>
</svg>
