<svg width="120" height="120" viewBox="0 0 120 120" fill="none" xmlns="http://www.w3.org/2000/svg">
<path fill-rule="evenodd" clip-rule="evenodd" d="M23 89.5V31.5C23 28.4624 20.5376 26 17.5 26C14.4624 26 12 28.4624 12 31.5V89.5C12 92.5376 14.4624 95 17.5 95C20.5376 95 23 92.5376 23 89.5ZM17.5 25C13.9101 25 11 27.9101 11 31.5V89.5C11 93.0899 13.9101 96 17.5 96C21.0899 96 24 93.0899 24 89.5V31.5C24 27.9101 21.0899 25 17.5 25ZM44 89.5V31.5C44 28.4624 41.5376 26 38.5 26C35.4624 26 33 28.4624 33 31.5V89.5C33 92.5376 35.4624 95 38.5 95C41.5376 95 44 92.5376 44 89.5ZM38.5 25C34.9101 25 32 27.9101 32 31.5V89.5C32 93.0899 34.9101 96 38.5 96C42.0899 96 45 93.0899 45 89.5V31.5C45 27.9101 42.0899 25 38.5 25ZM17 29.5V90.5H18V29.5H17ZM38 90.5V29.5H39V90.5H38ZM65 89.5V31.5C65 28.4624 62.5376 26 59.5 26C56.4624 26 54 28.4624 54 31.5V89.5C54 92.5376 56.4624 95 59.5 95C62.5376 95 65 92.5376 65 89.5ZM59.5 25C55.9101 25 53 27.9101 53 31.5V89.5C53 93.0899 55.9101 96 59.5 96C63.0899 96 66 93.0899 66 89.5V31.5C66 27.9101 63.0899 25 59.5 25ZM86 89.5V31.5C86 28.4624 83.5376 26 80.5 26C77.4624 26 75 28.4624 75 31.5V89.5C75 92.5376 77.4624 95 80.5 95C83.5376 95 86 92.5376 86 89.5ZM80.5 25C76.9101 25 74 27.9101 74 31.5V89.5C74 93.0899 76.9101 96 80.5 96C84.0899 96 87 93.0899 87 89.5V31.5C87 27.9101 84.0899 25 80.5 25ZM59 29.5V90.5H60V29.5H59ZM80 90.5V29.5H81V90.5H80ZM107 89.5V31.5C107 28.4624 104.538 26 101.5 26C98.4624 26 96 28.4624 96 31.5V89.5C96 92.5376 98.4624 95 101.5 95C104.538 95 107 92.5376 107 89.5ZM101.5 25C97.9101 25 95 27.9101 95 31.5V89.5C95 93.0899 97.9101 96 101.5 96C105.09 96 108 93.0899 108 89.5V31.5C108 27.9101 105.09 25 101.5 25ZM101 29.5V90.5H102V29.5H101ZM31 38.5H25V37.5H31V38.5ZM46 38.5H52V37.5H46V38.5ZM73 38.5H67V37.5H73V38.5ZM88 38.5H94V37.5H88V38.5ZM31 84.5H25V83.5H31V84.5ZM46 84.5H52V83.5H46V84.5ZM73 84.5H67V83.5H73V84.5ZM88 84.5H94V83.5H88V84.5Z" fill="#FF9900"/>
</svg>
