<svg width="32" height="32" viewBox="0 0 32 32" fill="none" xmlns="http://www.w3.org/2000/svg">
<g clip-path="url(#clip0_120_8349)">
<path d="M16 32C24.8366 32 32 24.8366 32 16C32 7.16344 24.8366 0 16 0C7.16344 0 0 7.16344 0 16C0 24.8366 7.16344 32 16 32Z" fill="white"/>
<path d="M21.2359 9.98145H10.7644C10.3459 9.98145 9.93152 10.0639 9.54493 10.2241C9.15834 10.3843 8.80711 10.6191 8.5113 10.9151C8.21549 11.2111 7.98091 11.5625 7.82096 11.9492C7.66101 12.3359 7.57883 12.7503 7.5791 13.1688V18.832C7.57883 19.2504 7.66101 19.6649 7.82096 20.0516C7.98091 20.4383 8.21549 20.7897 8.5113 21.0857C8.80711 21.3817 9.15834 21.6165 9.54493 21.7767C9.93152 21.9369 10.3459 22.0193 10.7644 22.0193H21.2359C21.6544 22.0193 22.0688 21.9369 22.4554 21.7767C22.842 21.6165 23.1932 21.3817 23.489 21.0857C23.7848 20.7897 24.0194 20.4383 24.1793 20.0516C24.3393 19.6649 24.4215 19.2504 24.4212 18.832V13.1688C24.4215 12.7503 24.3393 12.3359 24.1793 11.9492C24.0194 11.5625 23.7848 11.2111 23.489 10.9151C23.1932 10.6191 22.842 10.3843 22.4554 10.2241C22.0688 10.0639 21.6544 9.98145 21.2359 9.98145ZM13.7812 18.5814V13.4193L18.2191 16.0004L13.7812 18.5814Z" fill="black"/>
</g>
<defs>
<clipPath id="clip0_120_8349">
<rect width="32" height="32" fill="white"/>
</clipPath>
</defs>
</svg>
