<svg width="32" height="32" viewBox="0 0 32 32" fill="none" xmlns="http://www.w3.org/2000/svg">
<circle cx="16" cy="16" r="16" fill="white"/>
<g clip-path="url(#clip0_120_8337)">
<path d="M22.6657 16.8327C22.8657 16.4577 23.574 15.3827 24.1073 14.5827C25.7073 12.216 25.999 11.716 25.999 11.416C25.999 11.3055 25.9551 11.1995 25.877 11.1214C25.7988 11.0432 25.6928 10.9993 25.5823 10.9993H21.8323C21.7351 10.9997 21.6411 11.0341 21.5665 11.0965C21.4919 11.1589 21.4415 11.2454 21.424 11.341C21.2157 12.491 18.5157 15.791 18.0907 15.9993C17.9157 15.9993 17.674 15.566 17.674 14.7493V11.2327C17.6969 11.0967 17.6909 10.9574 17.6564 10.8239C17.622 10.6904 17.5598 10.5656 17.474 10.4577C17.1907 10.166 16.7657 10.166 15.5823 10.166C13.4323 10.166 12.6657 10.8077 12.6657 11.416C12.6611 11.4684 12.6673 11.5211 12.684 11.571C12.7007 11.6209 12.7274 11.6668 12.7626 11.7058C12.7978 11.7449 12.8406 11.7764 12.8885 11.7982C12.9363 11.82 12.9881 11.8317 13.0407 11.8327C13.0407 11.8327 13.499 12.1327 13.499 13.916C13.5226 14.6123 13.4863 15.3093 13.3907 15.9993C12.3323 15.8077 10.8657 13.166 10.1657 11.266C10.1338 11.1829 10.0762 11.1121 10.0012 11.0642C9.92621 11.0162 9.83783 10.9935 9.749 10.9993H6.41567C6.35403 10.9983 6.29293 11.011 6.23678 11.0365C6.18064 11.0619 6.13084 11.0995 6.09098 11.1466C6.05112 11.1936 6.0222 11.2489 6.00629 11.3085C5.99039 11.368 5.9879 11.4304 5.999 11.491C6.46567 14.0077 11.7573 21.8327 15.1657 21.8327H16.8323C17.7157 21.8327 17.7823 20.8743 17.8323 20.241C17.8823 19.6077 17.924 19.3327 18.0823 19.3327C18.599 19.3327 19.6573 20.2493 20.349 20.8493C21.0407 21.4493 21.4907 21.8327 21.8323 21.8327H23.9157C24.9907 21.8327 25.999 21.8327 25.999 20.9993C25.999 20.6827 25.724 20.316 24.1407 18.4993C23.6157 17.9243 22.9073 17.1327 22.6657 16.8327Z" fill="black"/>
</g>
<defs>
<clipPath id="clip0_120_8337">
<rect width="20" height="20" fill="white" transform="translate(6 6)"/>
</clipPath>
</defs>
</svg>
