<svg width="120" height="120" viewBox="0 0 120 120" fill="none" xmlns="http://www.w3.org/2000/svg">
<path fill-rule="evenodd" clip-rule="evenodd" d="M12 15C13.6569 15 15 13.6569 15 12C15 10.3431 13.6569 9 12 9C10.3431 9 9 10.3431 9 12C9 13.6569 10.3431 15 12 15ZM12 16C14.2091 16 16 14.2091 16 12C16 9.79086 14.2091 8 12 8C9.79086 8 8 9.79086 8 12C8 14.2091 9.79086 16 12 16ZM60.5 10H61V10.0025C67.4616 10.0665 73.8526 11.37 79.8255 13.8441C85.9525 16.3819 91.5195 20.1017 96.2089 24.7911C100.898 29.4805 104.618 35.0475 107.156 41.1745C109.63 47.1474 110.934 53.5384 110.998 60H111V60.5V61H110.998C110.934 67.4616 109.63 73.8526 107.156 79.8255C104.618 85.9525 100.898 91.5195 96.2089 96.2089C91.5195 100.898 85.9525 104.618 79.8255 107.156C73.8526 109.63 67.4616 110.934 61 110.998V111H60.5H60V110.998C53.5384 110.934 47.1474 109.63 41.1745 107.156C35.0475 104.618 29.4805 100.898 24.7911 96.2089C20.1018 91.5195 16.3819 85.9525 13.8441 79.8255C11.37 73.8526 10.0665 67.4616 10.0025 61H10V60.5V60H10.0025C10.0665 53.5384 11.37 47.1474 13.8441 41.1745C16.3819 35.0475 20.1018 29.4805 24.7911 24.7911C29.4805 20.1017 35.0475 16.3819 41.1745 13.8441C47.1474 11.37 53.5384 10.0665 60 10.0025V10H60.5ZM11.0025 60H20.0031C20.0666 54.8516 21.1114 49.761 23.0829 45.0013L24.0068 45.384C22.0855 50.0223 21.0667 54.983 21.0032 60H30.0041C30.067 56.1649 30.8527 52.3745 32.3217 48.8282C33.8544 45.1277 36.1011 41.7654 38.9332 38.9332C41.7654 36.1011 45.1277 33.8544 48.8282 32.3217C52.3745 30.8527 56.1649 30.067 60 30.0041L60 21.0032C54.983 21.0667 50.0223 22.0855 45.384 24.0068L45.0013 23.0829C49.761 21.1114 54.8516 20.0666 60 20.0031V11.0025C53.6697 11.0665 47.4088 12.3442 41.5572 14.768C35.5516 17.2556 30.0947 20.9017 25.4982 25.4982C20.9017 30.0947 17.2556 35.5516 14.768 41.5572C12.3442 47.4088 11.0665 53.6697 11.0025 60ZM31.0042 60H39.9864C40.0479 57.4757 40.5748 54.9829 41.5422 52.6474C42.5734 50.1579 44.0849 47.8958 45.9903 45.9903C47.8958 44.0849 50.1579 42.5734 52.6474 41.5422C54.9829 40.5748 57.4757 40.0479 60 39.9863V31.0042C56.2963 31.067 52.6359 31.8269 49.2108 33.2456C45.6317 34.7281 42.3797 36.901 39.6404 39.6404C36.901 42.3797 34.7281 45.6317 33.2456 49.2108C31.8268 52.6359 31.067 56.2963 31.0042 60ZM39.9864 61H31.0042C31.067 64.7037 31.8268 68.3641 33.2456 71.7892L32.3217 72.1718C30.8527 68.6255 30.067 64.8351 30.0041 61H21.0032C21.0667 66.017 22.0855 70.9777 24.0068 75.616C25.9918 80.4084 28.9014 84.7628 32.5693 88.4307C36.2372 92.0986 40.5916 95.0082 45.384 96.9932C50.0223 98.9145 54.983 99.9333 60 99.9968L60 90.9959C56.1649 90.933 52.3745 90.1473 48.8282 88.6783L49.2108 87.7544C52.6359 89.1731 56.2963 89.933 60 89.9958V81.0137C57.4757 80.9521 54.9829 80.4252 52.6474 79.4578C50.1579 78.4266 47.8958 76.9151 45.9903 75.0097C44.0849 73.1042 42.5734 70.8421 41.5422 68.3526C40.5748 66.0171 40.0479 63.5243 39.9864 61ZM60.5 80.0197C57.9366 80.0197 55.3984 79.5149 53.0301 78.5339C50.6619 77.5529 48.51 76.1151 46.6975 74.3025C44.8849 72.49 43.4471 70.3381 42.4661 67.9699C41.4851 65.6016 40.9803 63.0634 40.9803 60.5C40.9803 57.9366 41.4851 55.3984 42.4661 53.0301C43.4471 50.6619 44.8849 48.51 46.6975 46.6975C48.51 44.8849 50.6619 43.4471 53.0301 42.4661C55.3984 41.4851 57.9366 40.9803 60.5 40.9803C63.0634 40.9803 65.6016 41.4851 67.9699 42.4661C70.3381 43.4471 72.49 44.8849 74.3026 46.6975C76.1151 48.51 77.5529 50.6619 78.5339 53.0301C79.5149 55.3984 80.0198 57.9366 80.0198 60.5C80.0198 63.0634 79.5149 65.6016 78.5339 67.9699C77.5529 70.3381 76.1151 72.49 74.3026 74.3025C72.49 76.1151 70.3381 77.5529 67.9699 78.5339C65.6016 79.5149 63.0634 80.0197 60.5 80.0197ZM60 100.997C54.8516 100.933 49.761 99.8886 45.0013 97.9171C40.0876 95.8818 35.6229 92.8986 31.8622 89.1378C28.1014 85.3771 25.1182 80.9124 23.0829 75.9987C21.1114 71.239 20.0666 66.1484 20.0031 61H11.0025C11.0665 67.3303 12.3442 73.5912 14.768 79.4428C17.2556 85.4484 20.9017 90.9053 25.4982 95.5018C30.0947 100.098 35.5516 103.744 41.5572 106.232C47.4088 108.656 53.6697 109.934 60 109.997V100.997ZM61 109.997C67.3303 109.934 73.5912 108.656 79.4428 106.232C85.4485 103.744 90.9053 100.098 95.5018 95.5018C100.098 90.9053 103.744 85.4484 106.232 79.4428C108.656 73.5912 109.934 67.3303 109.997 61H100.997C100.933 66.1484 99.8886 71.239 97.9171 75.9987L96.9933 75.616C98.9145 70.9777 99.9333 66.017 99.9968 61H90.9959C90.933 64.8351 90.1473 68.6255 88.6783 72.1718C87.1456 75.8723 84.8989 79.2346 82.0668 82.0668C79.2346 84.8989 75.8723 87.1456 72.1719 88.6783C68.6255 90.1473 64.8351 90.933 61 90.9959L61 99.9968C66.017 99.9333 70.9777 98.9145 75.616 96.9932L75.9987 97.9171C71.239 99.8886 66.1484 100.933 61 100.997V109.997ZM61 89.9958C64.7037 89.933 68.3641 89.1731 71.7892 87.7544C75.3683 86.2719 78.6203 84.099 81.3597 81.3596C84.099 78.6203 86.2719 75.3683 87.7545 71.7892C89.1732 68.3641 89.933 64.7037 89.9958 61H81.0137C80.9521 63.5243 80.4252 66.0171 79.4578 68.3526C78.4266 70.8421 76.9151 73.1042 75.0097 75.0097C73.1042 76.9151 70.8421 78.4266 68.3526 79.4578C66.0171 80.4252 63.5243 80.9521 61 81.0137V89.9958ZM106.232 41.5572C108.656 47.4088 109.934 53.6697 109.997 60H100.997C100.933 54.8516 99.8886 49.761 97.9171 45.0013C95.8818 40.0876 92.8986 35.6229 89.1378 31.8622C85.3771 28.1014 80.9124 25.1182 75.9987 23.0829C71.239 21.1114 66.1484 20.0666 61 20.0031V11.0025C67.3303 11.0665 73.5912 12.3442 79.4428 14.768C85.4485 17.2556 90.9053 20.9017 95.5018 25.4982C100.098 30.0947 103.744 35.5516 106.232 41.5572ZM96.9933 45.384C98.9145 50.0223 99.9333 54.983 99.9968 60H90.9959C90.933 56.1649 90.1473 52.3745 88.6783 48.8282L87.7545 49.2108C89.1732 52.6359 89.933 56.2963 89.9958 60H81.0137C80.9521 57.4757 80.4252 54.9829 79.4578 52.6474C78.4266 50.1579 76.9151 47.8958 75.0097 45.9903C73.1042 44.0849 70.8421 42.5734 68.3526 41.5422C66.0171 40.5748 63.5243 40.0479 61 39.9863V31.0042C64.7037 31.067 68.3641 31.8269 71.7892 33.2456L72.1719 32.3217C68.6255 30.8527 64.8351 30.067 61 30.0041L61 21.0032C66.017 21.0667 70.9777 22.0855 75.616 24.0068C80.4084 25.9918 84.7628 28.9014 88.4307 32.5693C92.0986 36.2372 95.0082 40.5916 96.9933 45.384ZM60.5 74C67.9558 74 74 67.9558 74 60.5C74 53.0442 67.9558 47 60.5 47C53.0442 47 47 53.0442 47 60.5C47 67.9558 53.0442 74 60.5 74ZM60.5 75C68.5081 75 75 68.5081 75 60.5C75 52.4919 68.5081 46 60.5 46C52.4919 46 46 52.4919 46 60.5C46 68.5081 52.4919 75 60.5 75ZM15 108C15 109.657 13.6569 111 12 111C10.3431 111 9 109.657 9 108C9 106.343 10.3431 105 12 105C13.6569 105 15 106.343 15 108ZM16 108C16 110.209 14.2091 112 12 112C9.79086 112 8 110.209 8 108C8 105.791 9.79086 104 12 104C14.2091 104 16 105.791 16 108ZM108 15C109.657 15 111 13.6569 111 12C111 10.3431 109.657 9 108 9C106.343 9 105 10.3431 105 12C105 13.6569 106.343 15 108 15ZM108 16C110.209 16 112 14.2091 112 12C112 9.79086 110.209 8 108 8C105.791 8 104 9.79086 104 12C104 14.2091 105.791 16 108 16ZM111 108C111 109.657 109.657 111 108 111C106.343 111 105 109.657 105 108C105 106.343 106.343 105 108 105C109.657 105 111 106.343 111 108ZM112 108C112 110.209 110.209 112 108 112C105.791 112 104 110.209 104 108C104 105.791 105.791 104 108 104C110.209 104 112 105.791 112 108Z" fill="black"/>
</svg>
