<svg width="120" height="120" viewBox="0 0 120 120" fill="none" xmlns="http://www.w3.org/2000/svg">
<path fill-rule="evenodd" clip-rule="evenodd" d="M73 6H47V7H73V6ZM42.5 6.5V51.1909H43.5V6.5H42.5ZM78.6709 51.1909V6.5H77.6709V51.1909H78.6709ZM106 51.1909V6.5H105V51.1909H106ZM39 27H19.5V28H39V27ZM101 27H82V28H101V27ZM47 38.5H73V37.5H47V38.5ZM15.0817 6.7749V51.4897H16.0817V6.7749H15.0817ZM15.0817 60.2749V104.99H16.0817V60.2749H15.0817ZM42.5 60V104.691H43.5V60H42.5ZM78.6709 104.691V60H77.6709V104.691H78.6709ZM106 104.691V60H105V104.691H106ZM73 71.5H47V72.5H73V71.5ZM39 80.5H19.5V81.5H39V80.5ZM101 80.5H82V81.5H101V80.5ZM47 100H73V99H47V100ZM6 109.792H114.593V108.792H6V109.792Z" fill="black"/>
</svg>
